<?xml version="1.0" encoding="UTF-8" standalone="no"?>
<!-- Created with Inkscape (http://www.inkscape.org/) -->

<svg
   xmlns:dc="http://purl.org/dc/elements/1.1/"
   xmlns:cc="http://creativecommons.org/ns#"
   xmlns:rdf="http://www.w3.org/1999/02/22-rdf-syntax-ns#"
   xmlns:svg="http://www.w3.org/2000/svg"
   xmlns="http://www.w3.org/2000/svg"
   xmlns:sodipodi="http://sodipodi.sourceforge.net/DTD/sodipodi-0.dtd"
   xmlns:inkscape="http://www.inkscape.org/namespaces/inkscape"
   width="210mm"
   height="297mm"
   viewBox="0 0 210 297"
   version="1.1"
   id="svg3758"
   inkscape:version="0.92.3 (2405546, 2018-03-11)"
   sodipodi:docname="copyright.svg">
  <defs
     id="defs3752">
    <pattern
       y="0"
       x="0"
       height="6"
       width="6"
       patternUnits="userSpaceOnUse"
       id="EMFhbasepattern" />
    <pattern
       y="0"
       x="0"
       height="6"
       width="6"
       patternUnits="userSpaceOnUse"
       id="EMFhbasepattern-9" />
  </defs>
  <sodipodi:namedview
     id="base"
     pagecolor="#ffffff"
     bordercolor="#666666"
     borderopacity="1.0"
     inkscape:pageopacity="0.0"
     inkscape:pageshadow="2"
     inkscape:zoom="2.8"
     inkscape:cx="421.84918"
     inkscape:cy="638.921"
     inkscape:document-units="mm"
     inkscape:current-layer="layer1"
     showgrid="false"
     inkscape:window-width="2560"
     inkscape:window-height="1361"
     inkscape:window-x="-9"
     inkscape:window-y="-9"
     inkscape:window-maximized="1" />
  <metadata
     id="metadata3755">
    <rdf:RDF>
      <cc:Work
         rdf:about="">
        <dc:format>image/svg+xml</dc:format>
        <dc:type
           rdf:resource="http://purl.org/dc/dcmitype/StillImage" />
        <dc:title></dc:title>
      </cc:Work>
    </rdf:RDF>
  </metadata>
  <g
     inkscape:label="Ebene 1"
     inkscape:groupmode="layer"
     id="layer1">
    <text
       xml:space="preserve"
       style="font-style:normal;font-weight:normal;font-size:10.58333302px;line-height:1.25;font-family:sans-serif;letter-spacing:0px;word-spacing:0px;fill:#000000;fill-opacity:1;stroke:none;stroke-width:0.26458332"
       x="47.058037"
       y="129.55653"
       id="text3770"><tspan
         sodipodi:role="line"
         id="tspan3768"
         x="47.058037"
         y="139.21204"
         style="stroke-width:0.26458332" /></text>
    <g
       id="g3899">
      <g
         id="text3774"
         style="font-style:normal;font-weight:normal;font-size:10.58333302px;line-height:1.25;font-family:sans-serif;letter-spacing:0px;word-spacing:0px;fill:#f2f2f2;fill-opacity:1;stroke:none;stroke-width:0.26458332"
         aria-label="VAST Dynamics - Tobias Stein">
        <path
           id="path3823"
           style="font-style:normal;font-variant:normal;font-weight:normal;font-stretch:normal;font-family:'Alte Haas Grotesk';-inkscape-font-specification:'Alte Haas Grotesk';fill:#f2f2f2;stroke-width:0.26458332"
           d="m 47.407287,103.50038 q 0.169333,0 0.370416,0 0.201084,-0.0106 0.306917,0.0529 0.09525,0.0635 0.127,0.20108 0.04233,0.13758 0.08467,0.254 0.08467,0.21167 0.148166,0.43392 0.0635,0.21166 0.148167,0.42333 0.02117,0.0529 0.03175,0.10583 0.01058,0.0529 0.02117,0.10584 0.07408,0.17991 0.127,0.381 0.0635,0.1905 0.127,0.39158 0.148166,0.43392 0.28575,0.85725 0.148166,0.42333 0.296333,0.85725 0.07408,0.21167 0.127,0.43392 0.0635,0.21166 0.148167,0.42333 0.02117,0.0529 0.03175,0.11642 0.02117,0.0635 0.04233,0.127 0.116417,0.30691 0.211667,0.635 0.04233,0.10583 0.07408,0.22225 0.03175,0.10583 0.09525,0.1905 0.02117,0.0212 0.07408,0.0635 0.127,-0.0106 0.15875,-0.10584 0.03175,-0.10583 0.07408,-0.20108 0.116416,-0.27517 0.1905,-0.56092 0.07408,-0.28575 0.179916,-0.56091 0.0635,-0.16934 0.105834,-0.33867 0.05292,-0.16933 0.116416,-0.33867 0.05292,-0.127 0.08467,-0.254 0.04233,-0.13758 0.09525,-0.26458 0.15875,-0.4445 0.296333,-0.89958 0.137584,-0.45509 0.306917,-0.89959 0.02117,-0.0423 0.02117,-0.0741 0,-0.0423 0.02117,-0.0847 0.0635,-0.15875 0.116417,-0.32808 0.05292,-0.16933 0.105833,-0.32808 0.0635,-0.15875 0.105834,-0.3175 0.05292,-0.16934 0.116416,-0.33867 0.03175,-0.0952 0.0635,-0.17992 0.04233,-0.0952 0.127,-0.14816 0.0635,-0.0529 0.169334,-0.0529 0.116416,0 0.232833,0 h 0.232833 q 0.08467,0.0212 0.148167,0.0423 0.0635,0.0106 0.08467,0.0953 0,0.0212 0,0.0529 0.01058,0.0212 0,0.0423 -0.02117,0.10584 -0.0635,0.21167 -0.03175,0.0953 -0.0635,0.17992 -0.04233,0.0847 -0.07408,0.17991 -0.02117,0.0847 -0.05292,0.16934 -0.0635,0.14816 -0.116417,0.3175 -0.04233,0.15875 -0.105833,0.30691 -0.02117,0.0423 -0.02117,0.0741 0,0.0318 -0.02117,0.0741 -0.08467,0.17992 -0.148166,0.381 -0.05292,0.20108 -0.137584,0.381 -0.02117,0.0423 -0.02117,0.0847 0,0.0318 -0.02117,0.0635 -0.05292,0.13758 -0.105833,0.28575 -0.04233,0.13758 -0.09525,0.27516 -0.02117,0.0318 -0.03175,0.0741 0,0.0318 -0.02117,0.0741 -0.15875,0.40217 -0.296333,0.81492 -0.127,0.41275 -0.28575,0.81491 l -0.03175,0.0952 q -0.04233,0.11642 -0.08467,0.23284 -0.03175,0.10583 -0.07408,0.22225 -0.05292,0.127 -0.09525,0.26458 -0.04233,0.127 -0.09525,0.254 -0.02117,0.0635 -0.04233,0.127 -0.02117,0.0635 -0.04233,0.127 -0.0635,0.15875 -0.116417,0.32808 -0.05292,0.16934 -0.116416,0.3175 -0.05292,0.13759 -0.105834,0.29634 -0.04233,0.14816 -0.148166,0.22225 -0.04233,0.0212 -0.09525,0.0318 -0.05292,0.0106 -0.116417,0.0212 h -0.296333 q -0.127,0 -0.275167,0 -0.148167,0.0106 -0.232833,-0.0423 -0.09525,-0.0529 -0.127,-0.14817 -0.03175,-0.10583 -0.08467,-0.22225 -0.0635,-0.15875 -0.116417,-0.32808 -0.05292,-0.17992 -0.127,-0.34925 -0.02117,-0.0423 -0.03175,-0.0847 0,-0.0423 -0.02117,-0.0847 -0.08467,-0.21167 -0.15875,-0.42334 -0.0635,-0.22225 -0.148167,-0.42333 -0.02117,-0.0529 -0.03175,-0.0953 0,-0.0423 -0.02117,-0.0847 -0.05292,-0.14816 -0.105833,-0.28575 -0.05292,-0.14816 -0.105833,-0.29633 -0.02117,-0.0423 -0.03175,-0.0847 0,-0.0423 -0.02117,-0.0847 -0.05292,-0.13759 -0.105833,-0.27517 -0.04233,-0.14817 -0.09525,-0.29633 -0.05292,-0.11642 -0.08467,-0.23284 -0.03175,-0.127 -0.08467,-0.24341 -0.116416,-0.29634 -0.211666,-0.60325 -0.09525,-0.3175 -0.22225,-0.61384 -0.04233,-0.0952 -0.07408,-0.1905 -0.02117,-0.10583 -0.05292,-0.1905 -0.03175,-0.0635 -0.05292,-0.127 -0.01058,-0.0741 -0.04233,-0.13758 -0.09525,-0.24342 -0.179917,-0.49742 -0.07408,-0.254 -0.169333,-0.49741 -0.02117,-0.0741 -0.05292,-0.14817 -0.02117,-0.0741 -0.04233,-0.15875 -0.04233,-0.10583 -0.01058,-0.17992 0.03175,-0.0741 0.148167,-0.0953 0.02117,-0.0106 0.04233,0 0.02117,0 0.04233,-0.0106 z" />
        <path
           id="path3825"
           style="font-style:normal;font-variant:normal;font-weight:normal;font-stretch:normal;font-family:'Alte Haas Grotesk';-inkscape-font-specification:'Alte Haas Grotesk';fill:#f2f2f2;stroke-width:0.26458332"
           d="m 60.248342,110.4748 q 0.02117,0.0529 0.05292,0.127 0.03175,0.0741 0.04233,0.15875 0.02117,0.0741 0,0.14816 -0.01058,0.0635 -0.08467,0.0953 -0.05292,0.0212 -0.127,0.0212 -0.07408,0 -0.148167,0 -0.148167,0 -0.3175,0 -0.15875,0 -0.254,-0.0529 -0.105833,-0.0635 -0.15875,-0.22225 -0.04233,-0.15875 -0.09525,-0.28575 -0.116417,-0.27516 -0.211667,-0.5715 -0.09525,-0.29633 -0.211666,-0.58208 -0.03175,-0.0953 -0.0635,-0.17992 -0.02117,-0.0847 -0.0635,-0.15875 -0.03175,-0.0741 -0.09525,-0.127 -0.0635,-0.0529 -0.169334,-0.0847 -0.05292,-0.0212 -0.127,-0.0106 -0.0635,0 -0.137583,0 h -2.00025 q -0.09525,0 -0.211666,0 -0.116417,-0.0106 -0.22225,0 -0.105834,0.0106 -0.201084,0.0318 -0.08467,0.0212 -0.127,0.0847 -0.08467,0.10583 -0.127,0.24342 -0.03175,0.127 -0.08467,0.26458 -0.105834,0.24342 -0.201084,0.508 -0.08467,0.26458 -0.1905,0.508 -0.02117,0.0635 -0.05292,0.14817 -0.02117,0.0741 -0.05292,0.15875 -0.03175,0.0847 -0.07408,0.15875 -0.03175,0.0635 -0.07408,0.0952 -0.08467,0.0635 -0.232833,0.0741 -0.137583,0 -0.296333,0 -0.08467,0 -0.169334,0 -0.07408,-0.0106 -0.127,-0.0529 -0.05292,-0.0318 -0.0635,-0.0953 0,-0.0635 0.01058,-0.127 0.02117,-0.0741 0.04233,-0.13758 0.03175,-0.0741 0.05292,-0.10583 0.148166,-0.33867 0.264583,-0.66675 0.116417,-0.33867 0.254,-0.67734 0.09525,-0.23283 0.179917,-0.45508 0.08467,-0.23283 0.179916,-0.46567 0.3175,-0.762 0.60325,-1.53458 0.28575,-0.78317 0.60325,-1.55575 0.116417,-0.27517 0.211667,-0.56092 0.105833,-0.28575 0.22225,-0.56091 0.05292,-0.11642 0.09525,-0.254 0.05292,-0.14817 0.148167,-0.21167 0.04233,-0.0423 0.137583,-0.0635 0.02117,-0.0106 0.04233,0 0.03175,0 0.05292,-0.0106 0.1905,0 0.4445,0 0.254,-0.0106 0.370417,0.0741 0.08467,0.0635 0.127,0.21167 0.05292,0.13758 0.105833,0.254 0.105833,0.24341 0.1905,0.48683 0.08467,0.24342 0.1905,0.48683 0.08467,0.21167 0.15875,0.43392 0.08467,0.22225 0.179916,0.43392 0.3175,0.77258 0.60325,1.56633 0.296334,0.78317 0.624417,1.55575 0.04233,0.0953 0.0635,0.17992 0.03175,0.0847 0.0635,0.17991 0.116417,0.27517 0.22225,0.56092 0.116417,0.28575 0.232833,0.56092 z m -2.264833,-2.57175 q 0.09525,-0.0317 0.116417,-0.10584 0.03175,-0.0741 0.01058,-0.15875 -0.01058,-0.0952 -0.05292,-0.17991 -0.03175,-0.0953 -0.0635,-0.15875 -0.02117,-0.0423 -0.02117,-0.0741 0,-0.0318 -0.02117,-0.0741 -0.03175,-0.0847 -0.0635,-0.16933 -0.02117,-0.0952 -0.0635,-0.1905 -0.15875,-0.381 -0.28575,-0.77259 -0.116416,-0.40216 -0.275166,-0.78316 -0.05292,-0.11642 -0.09525,-0.23284 -0.03175,-0.11641 -0.08467,-0.22225 -0.02117,-0.0529 -0.05292,-0.0952 -0.02117,-0.0529 -0.105833,-0.0529 -0.02117,0.0212 -0.04233,0.0318 -0.02117,0.0106 -0.04233,0.0317 -0.04233,0.0529 -0.0635,0.11641 -0.02117,0.0529 -0.04233,0.11642 -0.05292,0.11642 -0.08467,0.23283 -0.03175,0.11642 -0.08467,0.23284 -0.179917,0.41275 -0.3175,0.83608 -0.127,0.42333 -0.296334,0.8255 -0.02117,0.0529 -0.04233,0.10583 -0.01058,0.0529 -0.03175,0.10584 -0.03175,0.0847 -0.0635,0.16933 -0.03175,0.0847 -0.05292,0.16933 -0.02117,0.0529 -0.02117,0.11642 0.01058,0.0635 0.03175,0.10583 0.05292,0.0847 0.22225,0.0953 0.169333,0 0.3175,0 h 1.132416 q 0.116417,0 0.28575,0.0106 0.169334,0 0.254,-0.0318 z" />
        <path
           id="path3827"
           style="font-style:normal;font-variant:normal;font-weight:normal;font-stretch:normal;font-family:'Alte Haas Grotesk';-inkscape-font-specification:'Alte Haas Grotesk';fill:#f2f2f2;stroke-width:0.26458332"
           d="m 63.629056,103.33105 q 0.60325,-0.0212 1.068917,0.0952 0.465667,0.11641 0.8255,0.34925 0.0635,0.0423 0.116417,0.0741 0.0635,0.0317 0.116416,0.0847 0.02117,0.0212 0.04233,0.0423 0.02117,0.0106 0.04233,0.0318 0.02117,0.0212 0.05292,0.0529 0.03175,0.0212 0.05292,0.0529 0.04233,0.0529 0.08467,0.10584 0.04233,0.0529 0.08467,0.10583 0.04233,0.0529 0.0635,0.11642 0.03175,0.0529 0.0635,0.10583 0.09525,0.14817 0.148167,0.33867 0.05292,0.17991 0.105833,0.381 0.02117,0.0847 0.01058,0.1905 0,0.0953 -0.03175,0.14816 -0.05292,0.0741 -0.169334,0.0847 -0.116416,0.0106 -0.243416,0.0106 -0.05292,0 -0.09525,0 -0.04233,0 -0.08467,-0.0106 -0.05292,-0.0106 -0.09525,-0.0106 -0.03175,0 -0.07408,-0.0212 -0.02117,-0.0106 -0.04233,-0.0212 -0.02117,-0.0212 -0.04233,-0.0423 -0.0635,-0.0952 -0.09525,-0.23283 -0.02117,-0.13759 -0.07408,-0.24342 -0.179917,-0.42333 -0.508,-0.635 -0.243417,-0.16933 -0.582083,-0.254 -0.0635,-0.0212 -0.127,-0.0212 -0.0635,-0.0106 -0.127,-0.0318 h -0.08467 q -0.08467,-0.0212 -0.169333,-0.0212 -0.08467,0 -0.169334,0 -0.550333,0 -0.92075,0.16933 -0.211666,0.0847 -0.381,0.23283 -0.169333,0.13759 -0.254,0.34925 -0.04233,0.0847 -0.0635,0.17992 -0.01058,0.0847 -0.03175,0.1905 -0.02117,0.0847 -0.02117,0.1905 0.01058,0.10583 0.03175,0.17992 0.07408,0.24341 0.179916,0.37041 0.116417,0.127 0.3175,0.24342 0.232834,0.14817 0.518584,0.22225 0.28575,0.0741 0.592666,0.15875 0.09525,0.0212 0.1905,0.0318 0.09525,0.0106 0.1905,0.0423 0.148167,0.0423 0.306917,0.0741 0.169333,0.0212 0.3175,0.0741 0.04233,0.0106 0.07408,0.0212 0.03175,0 0.07408,0.0106 0.09525,0.0212 0.1905,0.0529 0.09525,0.0212 0.1905,0.0529 0.211666,0.0741 0.41275,0.15875 0.201083,0.0847 0.381,0.20109 0.232833,0.14816 0.412749,0.34925 0.1905,0.1905 0.306917,0.45508 0.04233,0.0952 0.0635,0.1905 0.02117,0.0952 0.04233,0.20108 0.02117,0.0529 0.02117,0.127 0,0.0635 0.02117,0.127 v 0.11642 0.0952 q -0.01058,0.0423 -0.01058,0.0847 0,0.0423 0,0.0847 -0.02117,0.0847 -0.03175,0.17992 0,0.0847 -0.03175,0.16933 -0.05292,0.15875 -0.116416,0.30692 -0.0635,0.14817 -0.15875,0.27517 -0.179917,0.27516 -0.455084,0.46566 -0.275166,0.1905 -0.592666,0.33867 -0.105833,0.0423 -0.211667,0.0741 -0.09525,0.0317 -0.211666,0.0635 -0.116417,0.0423 -0.243417,0.0529 -0.127,0.0212 -0.254,0.0529 -0.05292,0.0106 -0.116417,0.0106 -0.05292,0 -0.105833,0.0106 -0.0635,0 -0.127,0 -0.0635,0.0106 -0.127,0.0106 -0.05292,0.0106 -0.15875,0.0106 -0.09525,0 -0.148167,-0.0106 H 63.63964 q -0.105834,-0.0212 -0.211667,-0.0212 -0.105833,0 -0.201083,-0.0212 -0.04233,-0.0106 -0.08467,-0.0212 -0.04233,0 -0.09525,-0.0106 -0.116417,-0.0212 -0.22225,-0.0423 -0.09525,-0.0212 -0.201083,-0.0635 -0.518584,-0.16933 -0.878417,-0.43392 -0.34925,-0.26458 -0.60325,-0.68791 -0.08467,-0.13759 -0.148167,-0.28575 -0.05292,-0.14817 -0.105833,-0.3175 -0.02117,-0.0635 -0.03175,-0.127 0,-0.0635 -0.02117,-0.11642 -0.02117,-0.0952 -0.02117,-0.21167 0,-0.127 0.05292,-0.17991 0.05292,-0.0741 0.169334,-0.0847 0.127,-0.0106 0.243416,-0.0106 0.04233,0 0.08467,0 0.05292,0 0.08467,0.0106 0.05292,0.0106 0.08467,0.0106 0.03175,-0.0106 0.07408,0.0106 0.07408,0.0423 0.09525,0.0847 0.03175,0.0529 0.03175,0.11642 0.01058,0.0529 0.03175,0.11642 0.02117,0.0741 0.03175,0.14816 0.02117,0.0741 0.05292,0.14817 0.179917,0.45508 0.53975,0.71967 0.179917,0.13758 0.391584,0.22225 0.211666,0.0847 0.455083,0.15875 0.08467,0.0212 0.169333,0.0318 0.08467,0.0106 0.169334,0.0212 0.02117,0 0.05292,0.0106 0.03175,0 0.0635,0 0.04233,0.0106 0.09525,0 0.0635,-0.0106 0.116417,0.0106 0.04233,0.0106 0.116417,0.0106 0.08467,0 0.137583,-0.0212 h 0.07408 q 0.05292,-0.0106 0.105834,-0.0106 0.05292,0 0.105833,-0.0106 0.03175,-0.0106 0.05292,0 0.03175,0 0.07408,-0.0212 0.08467,-0.0212 0.179917,-0.0318 0.09525,-0.0212 0.179916,-0.0529 0.275167,-0.11642 0.486834,-0.26459 0.22225,-0.15875 0.338666,-0.42333 0.03175,-0.0847 0.05292,-0.16933 0.02117,-0.0847 0.04233,-0.16934 0.02117,-0.0847 0.02117,-0.20108 0,-0.11642 -0.02117,-0.1905 -0.02117,-0.0529 -0.02117,-0.0847 0,-0.0423 -0.02117,-0.0847 -0.0635,-0.17992 -0.169333,-0.29634 -0.105834,-0.127 -0.254,-0.23283 -0.22225,-0.15875 -0.497417,-0.254 -0.275167,-0.0952 -0.582083,-0.15875 -0.296334,-0.0741 -0.613834,-0.13758 -0.3175,-0.0635 -0.613833,-0.14817 -0.169333,-0.0529 -0.338667,-0.0847 -0.169333,-0.0423 -0.3175,-0.10583 -0.02117,-0.0106 -0.03175,-0.0106 -0.01058,0 -0.03175,-0.0106 -0.105833,-0.0423 -0.211666,-0.0847 -0.105834,-0.0423 -0.201084,-0.10584 -0.243416,-0.14816 -0.4445,-0.3175 -0.201083,-0.17991 -0.3175,-0.45508 -0.05292,-0.0953 -0.07408,-0.20108 -0.02117,-0.11642 -0.05292,-0.23284 0,-0.0423 -0.01058,-0.0741 0,-0.0318 0,-0.0635 -0.03175,-0.127 -0.01058,-0.3175 0.02117,-0.20108 0.05292,-0.30692 0.03175,-0.11641 0.05292,-0.22225 0.03175,-0.10583 0.07408,-0.20108 0.148167,-0.3175 0.381,-0.52917 0.232834,-0.22225 0.518584,-0.40216 0.02117,-0.0212 0.05292,-0.0212 0.03175,-0.0106 0.05292,-0.0318 0.232833,-0.11642 0.53975,-0.20108 0.08467,-0.0212 0.15875,-0.0318 0.07408,-0.0212 0.15875,-0.0423 0.08467,-0.0212 0.179917,-0.0212 0.105833,0 0.1905,-0.0212 0.03175,-0.0106 0.09525,0 0.0635,0.0106 0.08467,-0.0106 z" />
        <path
           id="path3829"
           style="font-style:normal;font-variant:normal;font-weight:normal;font-stretch:normal;font-family:'Alte Haas Grotesk';-inkscape-font-specification:'Alte Haas Grotesk';fill:#f2f2f2;stroke-width:0.26458332"
           d="m 67.581269,103.47921 h 4.423833 0.804333 q 0.105833,0 0.211667,0 0.105833,0 0.179916,0.0423 0.08467,0.0529 0.09525,0.14816 0.02117,0.0847 0.02117,0.22225 v 0.127 q -0.02117,0.0847 -0.04233,0.13759 -0.01058,0.0529 -0.0635,0.0953 -0.08467,0.0529 -0.232834,0.0529 -0.148166,0 -0.28575,0 h -1.2065 q -0.116416,0 -0.232833,0 -0.105833,-0.0106 -0.201083,0.0106 -0.08467,0.0106 -0.148167,0.0635 -0.0635,0.0423 -0.09525,0.13758 -0.03175,0.0953 -0.02117,0.24342 0.01058,0.14816 0.01058,0.26458 v 1.02658 3.34434 1.12183 q 0,0.15875 -0.02117,0.28575 -0.01058,0.127 -0.116416,0.17992 -0.05292,0.0212 -0.127,0.0318 -0.07408,0 -0.15875,0 -0.137584,0 -0.296334,0 -0.148166,0 -0.201083,-0.0741 -0.0635,-0.0847 -0.07408,-0.20108 0,-0.11642 0,-0.254 v -0.94192 -3.48191 -1.04775 q 0,-0.11642 0,-0.26459 0.01058,-0.15875 -0.02117,-0.254 -0.05292,-0.16933 -0.243417,-0.17991 -0.179916,-0.0106 -0.391583,-0.0106 h -1.164167 q -0.127,0 -0.296333,0.0106 -0.15875,0 -0.243417,-0.0317 -0.03175,-0.0212 -0.0635,-0.0423 -0.03175,-0.0212 -0.05292,-0.0529 -0.03175,-0.0423 -0.04233,-0.13759 -0.01058,-0.0952 -0.01058,-0.1905 0.01058,-0.0952 0.03175,-0.17991 0.02117,-0.0847 0.05292,-0.11642 0.02117,-0.0318 0.05292,-0.0423 0.04233,-0.0212 0.08467,-0.0318 0.02117,-0.0106 0.04233,0 0.02117,0 0.04233,-0.0106 z" />
        <path
           id="path3831"
           style="font-style:normal;font-variant:normal;font-weight:normal;font-stretch:normal;font-family:'Alte Haas Grotesk';-inkscape-font-specification:'Alte Haas Grotesk';fill:#f2f2f2;stroke-width:0.26458332"
           d="m 83.292889,107.07755 q 0,0.0847 0,0.1905 0.01058,0.0952 -0.01058,0.16933 v 0.10583 q -0.01058,0.0318 -0.01058,0.0741 0.01058,0.0423 0,0.0635 -0.01058,0.0529 -0.01058,0.11641 0,0.0529 -0.01058,0.10584 -0.03175,0.14816 -0.04233,0.3175 -0.01058,0.15875 -0.0635,0.30691 -0.03175,0.127 -0.07408,0.26459 -0.03175,0.127 -0.08467,0.254 -0.179917,0.45508 -0.455084,0.8255 -0.264583,0.35983 -0.666749,0.61383 -0.201084,0.127 -0.433917,0.22225 -0.22225,0.0847 -0.486833,0.16933 -0.116417,0.0423 -0.254,0.0635 -0.127,0.0106 -0.254,0.0423 -0.116417,0.0212 -0.232834,0.0212 -0.105833,0 -0.211666,0.0212 h -0.148167 q -0.03175,0.0106 -0.07408,0.0106 -0.04233,-0.0106 -0.08467,-0.0106 h -2.116667 q -0.15875,0 -0.28575,-0.0106 -0.116416,-0.0212 -0.15875,-0.13759 -0.04233,-0.0847 -0.04233,-0.24341 0.01058,-0.15875 0.01058,-0.28575 v -6.25475 q 0,-0.127 -0.01058,-0.26459 0,-0.14816 0.05292,-0.23283 0.04233,-0.0741 0.15875,-0.0952 0.02117,-0.0106 0.04233,0 0.02117,0 0.04233,-0.0106 h 2.296584 q 0.05292,0 0.09525,0 0.05292,-0.0106 0.09525,0 0.05292,0.0212 0.105833,0.0106 0.0635,-0.0106 0.116417,0 0.05292,0.0106 0.116416,0.0106 0.0635,0 0.116417,0.0106 0.05292,0.0106 0.09525,0.0106 0.05292,0 0.105833,0.0106 0.116417,0.0212 0.22225,0.0423 0.105834,0.0106 0.211667,0.0423 0.232833,0.0741 0.4445,0.14817 0.211667,0.0635 0.391583,0.17991 0.148167,0.0847 0.264583,0.16934 0.03175,0.0212 0.0635,0.0529 0.03175,0.0212 0.0635,0.0423 0.0635,0.0529 0.116417,0.10583 0.05292,0.0529 0.105833,0.10583 0.05292,0.0529 0.08467,0.0741 0.04233,0.0635 0.08467,0.11641 0.05292,0.0529 0.09525,0.11642 0.05292,0.0635 0.08467,0.13758 0.04233,0.0635 0.09525,0.13759 0.02117,0.0423 0.03175,0.0741 0.01058,0.0318 0.03175,0.0741 0.04233,0.0847 0.07408,0.16934 0.03175,0.0741 0.07408,0.15875 0.04233,0.11641 0.0635,0.24341 0.03175,0.11642 0.0635,0.23284 0.02117,0.0635 0.02117,0.127 0,0.0529 0.02117,0.11641 0.05292,0.1905 0.05292,0.42334 0.01058,0.22225 0.01058,0.4445 z m -1.005416,0.55033 q 0.02117,-0.10583 0.02117,-0.22225 0,-0.127 0,-0.24342 0,-0.0847 0,-0.15875 0.01058,-0.0847 -0.01058,-0.15875 0,-0.0318 -0.01058,-0.0635 0,-0.0318 0,-0.0741 -0.02117,-0.11642 -0.03175,-0.23283 0,-0.11642 -0.03175,-0.23284 -0.02117,-0.0847 -0.04233,-0.15875 -0.01058,-0.0847 -0.03175,-0.16933 -0.116416,-0.381 -0.296333,-0.66675 -0.296333,-0.47625 -0.878416,-0.71967 -0.09525,-0.0529 -0.201084,-0.0741 -0.105833,-0.0317 -0.22225,-0.0635 -0.116416,-0.0318 -0.243416,-0.0318 -0.116417,-0.0106 -0.232834,-0.0318 h -0.22225 q -0.03175,-0.0106 -0.07408,-0.0106 -0.04233,0 -0.08467,0 H 78.40339 q -0.02117,0.0106 -0.05292,0.0106 -0.03175,-0.0106 -0.05292,0 -0.05292,0.0212 -0.105833,0.0423 -0.04233,0.0212 -0.0635,0.0635 -0.02117,0.0423 -0.04233,0.14817 v 0.0847 q -0.01058,0.0423 -0.01058,0.0952 0,0.0529 0,0.0953 v 4.80483 q 0,0.0529 0,0.10583 0,0.0423 0.01058,0.0847 v 0.0847 q 0.02117,0.10583 0.04233,0.14816 0.08467,0.127 0.3175,0.127 0.232833,-0.0106 0.4445,-0.0106 h 0.613833 q 0.07408,0 0.15875,0.0106 0.08467,0 0.148167,-0.0212 h 0.116417 q 0.05292,-0.0106 0.116416,0 0.0635,0 0.127,-0.0106 0.0635,-0.0212 0.127,-0.0212 0.0635,-0.0106 0.137584,-0.0318 0.116416,-0.0318 0.22225,-0.0635 0.116416,-0.0318 0.232833,-0.0847 0.391583,-0.16933 0.66675,-0.45508 0.28575,-0.29634 0.465666,-0.6985 0.05292,-0.11642 0.08467,-0.24342 0.04233,-0.13758 0.08467,-0.27517 0.03175,-0.11641 0.04233,-0.24341 0.02117,-0.13759 0.04233,-0.26459 0.01058,-0.0529 0.01058,-0.0847 0,-0.0423 0,-0.0847 z" />
        <path
           id="path3833"
           style="font-style:normal;font-variant:normal;font-weight:normal;font-stretch:normal;font-family:'Alte Haas Grotesk';-inkscape-font-specification:'Alte Haas Grotesk';fill:#f2f2f2;stroke-width:0.26458332"
           d="m 84.151463,105.57471 q 0.137583,0 0.3175,0 0.179916,-0.0106 0.264583,0.0423 0.08467,0.0529 0.116417,0.13758 0.04233,0.0847 0.08467,0.17992 0.05292,0.13758 0.09525,0.27516 0.04233,0.13759 0.09525,0.27517 0.05292,0.127 0.09525,0.26458 0.04233,0.127 0.09525,0.254 0.05292,0.11642 0.08467,0.24342 0.03175,0.127 0.08467,0.254 0.127,0.30692 0.232833,0.635 0.105833,0.32808 0.232833,0.635 0.02117,0.0423 0.02117,0.0847 0,0.0318 0.02117,0.0635 0.0635,0.14816 0.116416,0.30691 0.05292,0.14817 0.105834,0.29634 0.03175,0.0741 0.0635,0.15875 0.03175,0.0741 0.105833,0.0953 0.08467,0.0317 0.127,-0.0529 0.05292,-0.0953 0.07408,-0.14817 0.08467,-0.17991 0.137583,-0.381 0.05292,-0.20108 0.127,-0.39158 0.09525,-0.24342 0.169334,-0.48683 0.07408,-0.254 0.179916,-0.48684 0.01058,-0.0529 0.03175,-0.13758 0.04233,-0.0952 0.07408,-0.1905 0.03175,-0.10583 0.0635,-0.1905 0.02117,-0.0529 0.03175,-0.0952 0.01058,-0.0423 0.03175,-0.0953 0.05292,-0.127 0.08467,-0.254 0.04233,-0.13758 0.09525,-0.26458 0.02117,-0.0529 0.03175,-0.0952 0.01058,-0.0423 0.03175,-0.0953 0.04233,-0.0952 0.07408,-0.1905 0.03175,-0.10584 0.0635,-0.20109 0.03175,-0.0847 0.05292,-0.16933 0.03175,-0.0952 0.08467,-0.15875 0.07408,-0.0953 0.201083,-0.10583 0.137584,-0.0106 0.296334,-0.0106 0.08467,0 0.15875,0.0106 0.08467,0 0.137583,0.0318 0.09525,0.0635 0.05292,0.20108 -0.04233,0.13758 -0.07408,0.21167 -0.01058,0.0212 -0.02117,0.0423 0,0.0212 -0.01058,0.0423 -0.116416,0.29634 -0.232833,0.60325 -0.116417,0.29634 -0.232833,0.59267 -0.03175,0.0847 -0.05292,0.15875 -0.02117,0.0635 -0.05292,0.13758 -0.08467,0.21167 -0.169333,0.43392 -0.07408,0.21167 -0.15875,0.42333 -0.306917,0.73025 -0.5715,1.47109 -0.264583,0.74083 -0.5715,1.47108 -0.02117,0.0529 -0.04233,0.10583 -0.01058,0.0635 -0.03175,0.127 -0.169333,0.39159 -0.359833,0.77259 -0.1905,0.39158 -0.529167,0.60325 -0.116417,0.0635 -0.232833,0.0953 -0.116417,0.0423 -0.264584,0.0741 -0.05292,0.0212 -0.116416,0.0106 -0.05292,-0.0106 -0.116417,0 -0.08467,0.0212 -0.169333,0 -0.04233,-0.0106 -0.105834,-0.0106 -0.08467,-0.0212 -0.169333,-0.0423 -0.07408,-0.0212 -0.116417,-0.0847 -0.05292,-0.0635 -0.0635,-0.15875 0,-0.0847 0,-0.1905 0,-0.0741 0,-0.14817 0.01058,-0.0635 0.04233,-0.10583 0.07408,-0.11642 0.254,-0.0635 0.116416,0.0212 0.254,0.0212 0.137583,0 0.243416,-0.0423 0.15875,-0.0529 0.254,-0.15875 0.105834,-0.10583 0.179917,-0.24341 0.07408,-0.127 0.127,-0.27517 0.0635,-0.14817 0.127,-0.29633 0.04233,-0.0953 0.08467,-0.23284 0.05292,-0.13758 0.01058,-0.28575 -0.05292,-0.16933 -0.116417,-0.3175 -0.05292,-0.14816 -0.116416,-0.29633 -0.09525,-0.22225 -0.179917,-0.4445 -0.08467,-0.22225 -0.169333,-0.43392 -0.0635,-0.14816 -0.116417,-0.28575 -0.05292,-0.13758 -0.105833,-0.28575 -0.1905,-0.46566 -0.381,-0.93133 -0.179917,-0.46567 -0.370417,-0.93133 -0.105833,-0.24342 -0.1905,-0.46567 -0.08467,-0.23283 -0.179917,-0.46567 -0.02117,-0.0635 -0.0635,-0.16933 -0.04233,-0.11642 0.01058,-0.1905 0.03175,-0.0529 0.127,-0.0741 0.02117,-0.0106 0.04233,0 0.03175,0 0.05292,-0.0106 z" />
        <path
           id="path3835"
           style="font-style:normal;font-variant:normal;font-weight:normal;font-stretch:normal;font-family:'Alte Haas Grotesk';-inkscape-font-specification:'Alte Haas Grotesk';fill:#f2f2f2;stroke-width:0.26458332"
           d="m 92.24771,105.46888 q 0.66675,-0.0212 1.068917,0.17992 0.402166,0.20108 0.645583,0.60325 0.0635,0.10583 0.09525,0.23283 0.04233,0.11642 0.07408,0.24342 0.05292,0.20108 0.0635,0.43391 0.01058,0.23284 0.01058,0.47625 v 1.13242 1.651 q 0,0.17992 -0.01058,0.35983 0,0.17992 -0.137583,0.23284 -0.05292,0.0212 -0.116417,0.0212 -0.05292,0.0106 -0.116416,0.0106 -0.137584,0 -0.264584,-0.0106 -0.127,0 -0.179916,-0.0847 -0.05292,-0.0741 -0.05292,-0.1905 0,-0.11642 0,-0.23284 v -0.91016 -1.72509 q 0,-0.28575 -0.01058,-0.56091 -0.01058,-0.28575 -0.09525,-0.48684 -0.08467,-0.21166 -0.254,-0.33866 -0.169334,-0.13759 -0.391584,-0.21167 -0.0635,-0.0212 -0.137583,-0.0212 -0.0635,-0.0106 -0.127,-0.0318 -0.05292,-0.0106 -0.169333,0 -0.105834,0 -0.148167,0.0106 -0.04233,0.0212 -0.07408,0.0212 -0.03175,-0.0106 -0.07408,0 -0.137583,0.0317 -0.264583,0.0741 -0.116417,0.0318 -0.22225,0.0952 -0.04233,0.0212 -0.07408,0.0423 -0.03175,0.0212 -0.07408,0.0423 -0.370416,0.26459 -0.53975,0.79375 -0.03175,0.0847 -0.04233,0.17992 -0.01058,0.0847 -0.03175,0.16933 -0.02117,0.0529 -0.01058,0.10584 0.01058,0.0423 -0.01058,0.0847 v 0.22225 q -0.01058,0.0318 -0.01058,0.0741 0.01058,0.0423 0.01058,0.0953 v 0.3175 1.016 0.93133 q 0,0.11642 0,0.24342 0,0.11641 -0.05292,0.1905 -0.05292,0.0847 -0.1905,0.0847 -0.127,0.0106 -0.264584,0.0106 -0.08467,0 -0.15875,-0.0106 -0.07408,-0.0106 -0.127,-0.0529 -0.08467,-0.0529 -0.08467,-0.20109 0,-0.14816 0,-0.28575 v -1.24883 -2.56117 -0.64558 q 0,-0.0952 0,-0.1905 0,-0.0952 0.04233,-0.14817 0.03175,-0.0635 0.105833,-0.0847 0.04233,-0.0106 0.116417,-0.0212 0.08467,-0.0106 0.169333,-0.0106 0.08467,0 0.15875,0.0106 0.08467,0.0106 0.116417,0.0318 0.116417,0.0741 0.105833,0.1905 -0.01058,0.10583 0.03175,0.24342 0.02117,0.0635 0.08467,0.10583 0.127,0.0106 0.201083,-0.0952 0.08467,-0.10583 0.169334,-0.16933 0.148166,-0.10584 0.296333,-0.1905 0.15875,-0.0952 0.359833,-0.15875 0.08467,-0.0318 0.179917,-0.0423 0.105833,-0.0106 0.201083,-0.0318 0.05292,-0.0106 0.105834,-0.0106 0.05292,0 0.105833,0 z" />
        <path
           id="path3837"
           style="font-style:normal;font-variant:normal;font-weight:normal;font-stretch:normal;font-family:'Alte Haas Grotesk';-inkscape-font-specification:'Alte Haas Grotesk';fill:#f2f2f2;stroke-width:0.26458332"
           d="m 100.39307,110.63355 q 0.0318,0.16933 -0.0317,0.28575 -0.0635,0.10583 -0.16933,0.15875 -0.0529,0.0212 -0.11642,0.0212 -0.0529,0 -0.116413,0.0212 -0.232834,0.0529 -0.465667,-0.0318 -0.22225,-0.0741 -0.306917,-0.1905 -0.05292,-0.0741 -0.09525,-0.16933 -0.04233,-0.10584 -0.105833,-0.16934 -0.02117,-0.0212 -0.05292,-0.0423 -0.02117,-0.0212 -0.0635,-0.0106 -0.116416,0.0318 -0.22225,0.11641 -0.09525,0.0847 -0.1905,0.14817 -0.137583,0.0847 -0.296333,0.15875 -0.15875,0.0635 -0.338667,0.11642 -0.105833,0.0318 -0.232833,0.0423 -0.116417,0.0106 -0.232833,0.0318 -0.05292,0.0106 -0.09525,0.0106 -0.03175,0 -0.07408,0 -0.116416,0.0212 -0.22225,0 h -0.09525 q -0.05292,-0.0106 -0.105833,-0.0106 -0.05292,0 -0.09525,-0.0212 -0.04233,-0.0106 -0.07408,-0.0106 -0.02117,0.0106 -0.05292,0 -0.08467,-0.0212 -0.169333,-0.0423 -0.08467,-0.0106 -0.15875,-0.0423 -0.3175,-0.13758 -0.518584,-0.30691 -0.1905,-0.17992 -0.3175,-0.49742 -0.09525,-0.23283 -0.09525,-0.56092 v -0.22225 q 0.01058,-0.0529 0.01058,-0.10583 0.01058,-0.0635 0.02117,-0.127 0.04233,-0.11642 0.08467,-0.23283 0.04233,-0.11642 0.105833,-0.21167 0.1905,-0.30692 0.518584,-0.45508 0.328083,-0.14817 0.719666,-0.26459 0.148167,-0.0423 0.306917,-0.0635 0.15875,-0.0212 0.3175,-0.0529 0.07408,-0.0212 0.137583,-0.0212 0.07408,0 0.15875,-0.0212 0.07408,-0.0212 0.148167,-0.0212 0.07408,-0.0106 0.15875,-0.0318 0.264583,-0.0635 0.497417,-0.10584 0.232833,-0.0529 0.370416,-0.24341 0.0635,-0.0847 0.105834,-0.21167 0.04233,-0.13758 0,-0.29633 -0.0635,-0.254 -0.1905,-0.40217 -0.116417,-0.14817 -0.338667,-0.23283 -0.127,-0.0529 -0.306917,-0.0741 -0.169333,-0.0212 -0.359833,-0.0212 -0.1905,0 -0.370417,0.0212 -0.179916,0.0212 -0.306916,0.0635 -0.179917,0.0635 -0.34925,0.17992 -0.08467,0.0635 -0.15875,0.16933 -0.0635,0.0952 -0.116417,0.21167 -0.03175,0.0847 -0.0635,0.17992 -0.02117,0.0953 -0.09525,0.14816 -0.04233,0.0318 -0.148167,0.0529 -0.09525,0.0106 -0.201083,0.0106 -0.105833,0 -0.211667,-0.0106 -0.09525,-0.0212 -0.137583,-0.0529 -0.04233,-0.0318 -0.0635,-0.10583 -0.02117,-0.0741 0,-0.15875 0.03175,-0.13758 0.0635,-0.254 0.04233,-0.127 0.09525,-0.24342 0.201083,-0.37041 0.508,-0.5715 0.306917,-0.21166 0.762,-0.33866 0.105833,-0.0212 0.211667,-0.0318 0.116416,-0.0106 0.232833,-0.0318 0.04233,-0.0106 0.137583,0 0.09525,0 0.116417,-0.0212 0.740833,-0.0106 1.291167,0.16933 0.550333,0.17992 0.772583,0.68792 0.09525,0.21167 0.105833,0.49742 0.02117,0.27516 0.02117,0.58208 v 2.33892 q 0,0.14816 0.01058,0.28575 0.01058,0.13758 0.0635,0.22225 0.05292,0.0741 0.137587,0.10583 0.0952,0.0423 0.17991,0.0635 0.0847,0.0106 0.127,0.0953 0.0212,0.0317 0.0212,0.0635 0,0.0318 0.0106,0.0847 z m -1.513413,-1.17475 q 0.0635,-0.14817 0.0635,-0.33867 0.01058,-0.20108 0.01058,-0.41275 0,-0.11642 -0.01058,-0.21167 -0.01058,-0.0953 -0.08467,-0.14816 -0.03175,-0.0212 -0.148167,-0.0212 -0.02117,0.0212 -0.07408,0.0212 -0.05292,0 -0.09525,0.0212 -0.08467,0.0212 -0.1905,0.0423 -0.105833,0.0212 -0.211667,0.0423 -0.03175,0 -0.07408,0.0106 -0.03175,0 -0.07408,0 -0.15875,0.0423 -0.34925,0.0529 -0.179917,0 -0.338667,0.0423 -0.08467,0.0212 -0.15875,0.0423 -0.0635,0.0106 -0.148167,0.0318 -0.169333,0.0529 -0.3175,0.13758 -0.148166,0.0741 -0.254,0.1905 -0.105833,0.11642 -0.15875,0.28575 -0.05292,0.15875 -0.04233,0.39158 0,0.10584 0.03175,0.20109 0.04233,0.0847 0.09525,0.15875 0.08467,0.11641 0.22225,0.20108 0.137583,0.0741 0.296333,0.127 0.05292,0.0106 0.105834,0.0106 0.05292,0 0.105833,0.0106 0.07408,0.0212 0.179917,0.0317 0.116416,0 0.1905,-0.0212 0.0635,-0.0212 0.127,-0.0106 0.0635,0 0.127,-0.0212 0.08467,-0.0212 0.15875,-0.0317 0.08467,-0.0106 0.15875,-0.0423 0.306916,-0.127 0.518583,-0.30692 0.22225,-0.17992 0.338667,-0.48683 z" />
        <path
           id="path3839"
           style="font-style:normal;font-variant:normal;font-weight:normal;font-stretch:normal;font-family:'Alte Haas Grotesk';-inkscape-font-specification:'Alte Haas Grotesk';fill:#f2f2f2;stroke-width:0.26458332"
           d="m 103.82323,105.44771 q 0.40217,-0.0106 0.67734,0.0847 0.28575,0.0952 0.51858,0.27517 0.0847,0.0529 0.13758,0.14816 0.0635,0.0847 0.13759,0.15875 0.0212,0.0212 0.0635,0.0529 0.0423,0.0318 0.10583,0.0212 0.10583,-0.0318 0.17992,-0.127 0.0847,-0.10584 0.16933,-0.15875 0.14817,-0.11642 0.30692,-0.20109 0.15875,-0.0953 0.34925,-0.15875 0.0847,-0.0317 0.17991,-0.0423 0.10584,-0.0212 0.20109,-0.0423 0.0529,-0.0106 0.0952,-0.0106 0.0529,0 0.10583,0 0.0529,-0.0212 0.14817,-0.0106 0.0952,0 0.13758,0.0106 0.0529,0.0106 0.15875,0.0106 0.0953,0.0212 0.17992,0.0423 0.0953,0.0106 0.17991,0.0423 0.0529,0.0212 0.0952,0.0318 0.0529,0 0.10584,0.0212 0.52916,0.23283 0.73025,0.71967 0.0423,0.0847 0.0635,0.1905 0.0212,0.0952 0.0423,0.21166 0.0212,0.0318 0.0106,0.0741 0,0.0318 0.0106,0.0635 v 0.0953 q 0.0106,0.0423 0,0.0952 0,0.0529 0,0.10583 v 0.41275 0.67733 2.01084 q 0,0.16933 0,0.40216 0.0106,0.23284 -0.0847,0.30692 -0.0423,0.0318 -0.13758,0.0529 -0.0952,0.0106 -0.20109,0.0106 -0.10583,0 -0.21166,-0.0106 -0.0952,-0.0106 -0.13759,-0.0423 -0.0635,-0.0318 -0.0847,-0.127 -0.0212,-0.0635 -0.0106,-0.127 0.0106,-0.0741 -0.0106,-0.13758 -0.0106,-0.0529 -0.0106,-0.11642 0.0106,-0.0741 0.0106,-0.13758 v -0.47625 -2.02142 q 0,-0.34925 -0.0212,-0.65616 -0.0106,-0.3175 -0.14816,-0.52917 -0.15875,-0.254 -0.48684,-0.37042 -0.0635,-0.0212 -0.13758,-0.0212 -0.0635,-0.0106 -0.13758,-0.0318 -0.0423,-0.0106 -0.13759,0 -0.0953,0 -0.127,0.0106 -0.0529,0.0106 -0.10583,0.0106 -0.0529,-0.0106 -0.10583,0.0106 -0.14817,0.0318 -0.28575,0.0847 -0.55034,0.23284 -0.74084,0.81492 -0.0529,0.17992 -0.0635,0.41275 0,0.23283 0,0.47625 v 1.38642 1.02658 q 0,0.127 0,0.26458 0,0.127 -0.0529,0.20109 -0.0529,0.0847 -0.17992,0.0952 -0.127,0.0106 -0.26458,0.0106 -0.17992,0 -0.26459,-0.0423 -0.0952,-0.0529 -0.11641,-0.16934 -0.0106,-0.127 -0.0106,-0.27516 v -1.00542 -1.74625 q 0,-0.33867 -0.0212,-0.62442 -0.0212,-0.29633 -0.14817,-0.508 -0.11642,-0.1905 -0.26458,-0.27516 -0.14817,-0.0953 -0.40217,-0.14817 -0.0423,-0.0106 -0.0953,-0.0106 -0.0423,0 -0.0952,0 -0.23283,0 -0.41275,0.0529 -0.16933,0.0529 -0.30692,0.13759 -0.53975,0.32808 -0.71966,0.98425 -0.0423,0.13758 -0.0423,0.3175 0.0106,0.16933 0.0106,0.33866 v 1.19592 1.16417 q 0,0.13758 0,0.28575 0,0.14816 -0.0635,0.23283 -0.0529,0.0741 -0.15875,0.0847 -0.10584,0.0106 -0.22225,0.0106 h -0.15875 q -0.0635,-0.0212 -0.127,-0.0318 -0.0529,-0.0106 -0.0953,-0.0635 -0.0529,-0.0635 -0.0529,-0.15875 0,-0.10583 0,-0.22225 v -0.68792 -3.02683 -0.78317 q 0,-0.10583 0,-0.20108 0,-0.10583 0.0423,-0.16933 0.0317,-0.0635 0.0952,-0.0847 0.0847,-0.0317 0.26459,-0.0317 0.1905,0 0.27516,0.0317 0.0847,0.0423 0.11642,0.10583 0.0212,0.0529 0.0212,0.127 0.0106,0.0741 0.0212,0.13759 0.0106,0.0635 0.0423,0.10583 0.0318,0.0423 0.10583,0.0423 0.0212,-0.0212 0.0423,-0.0212 0.0318,0 0.0529,-0.0212 0.0635,-0.0529 0.11642,-0.10583 0.0635,-0.0529 0.127,-0.10584 0.23283,-0.16933 0.52916,-0.29633 0.10584,-0.0423 0.21167,-0.0529 0.10583,-0.0212 0.22225,-0.0529 0.0635,0 0.127,0 0.0741,-0.0106 0.13758,-0.0106 z" />
        <path
           id="path3841"
           style="font-style:normal;font-variant:normal;font-weight:normal;font-stretch:normal;font-family:'Alte Haas Grotesk';-inkscape-font-specification:'Alte Haas Grotesk';fill:#f2f2f2;stroke-width:0.26458332"
           d="m 110.45386,104.51638 q -0.0847,-0.0635 -0.0953,-0.22225 0,-0.16933 0,-0.32808 0,-0.0847 0,-0.17992 0,-0.0952 0.0318,-0.15875 0.0423,-0.0847 0.16933,-0.127 0.0212,-0.0106 0.0423,0 0.0318,0 0.0529,-0.0106 0.17992,0 0.33867,0.0106 0.15875,0.0106 0.21166,0.127 0.0318,0.0635 0.0318,0.15875 0,0.0847 0,0.17992 0,0.1905 -0.0106,0.35983 0,0.16933 -0.13758,0.22225 -0.0529,0.0212 -0.11642,0.0212 -0.0529,0 -0.11642,0 -0.11641,0 -0.22225,0 -0.10583,0 -0.17991,-0.0529 z m 0.78316,6.00075 q 0,0.10583 0,0.22225 0.0106,0.10583 -0.0423,0.16933 -0.0317,0.0635 -0.0952,0.0847 -0.0635,0.0106 -0.14817,0.0318 h -0.15875 q -0.13758,0 -0.24341,-0.0106 -0.0952,-0.0212 -0.14817,-0.10584 -0.0423,-0.0635 -0.0423,-0.15875 0,-0.10583 0,-0.20108 v -4.47675 q 0,-0.11642 0,-0.22225 0,-0.11642 0.0529,-0.17992 0.0318,-0.0529 0.0847,-0.0635 0.0529,-0.0106 0.11642,-0.0318 0.0212,0 0.0423,0.0106 0.0318,0 0.0529,-0.0106 0.13758,0 0.27516,0.0106 0.14817,0 0.20109,0.0847 0.0529,0.0635 0.0529,0.16934 0,0.0953 0,0.20108 z" />
        <path
           id="path3843"
           style="font-style:normal;font-variant:normal;font-weight:normal;font-stretch:normal;font-family:'Alte Haas Grotesk';-inkscape-font-specification:'Alte Haas Grotesk';fill:#f2f2f2;stroke-width:0.26458332"
           d="m 114.82113,105.44771 q 0.78317,-0.0106 1.30175,0.23284 0.52917,0.23283 0.83608,0.70908 0.13759,0.21167 0.23284,0.51858 0.0212,0.0529 0.0318,0.13759 0.0106,0.0847 -0.0106,0.14816 -0.0318,0.0529 -0.10583,0.0952 -0.0318,0.0212 -0.0635,0.0212 -0.0317,-0.0106 -0.0741,0 -0.0423,0.0106 -0.0847,0.0106 -0.0423,-0.0106 -0.0847,-0.0106 -0.11641,0 -0.22225,0 -0.10583,-0.0106 -0.17991,-0.0635 -0.0847,-0.0635 -0.11642,-0.17992 -0.0318,-0.11641 -0.0847,-0.20108 -0.15875,-0.27517 -0.41275,-0.43392 -0.0847,-0.0529 -0.17991,-0.0847 -0.0952,-0.0423 -0.20109,-0.0741 -0.14816,-0.0423 -0.39158,-0.0423 -0.24342,-0.0106 -0.40217,0.0423 -0.0741,0.0212 -0.13758,0.0317 -0.0635,0.0106 -0.13758,0.0318 -0.27517,0.11642 -0.48684,0.3175 -0.21166,0.20109 -0.32808,0.47625 -0.0423,0.0953 -0.0741,0.20109 -0.0318,0.0953 -0.0635,0.21166 l -0.0635,0.28575 q -0.0106,0.0529 -0.0106,0.11642 0.0106,0.0635 -0.0106,0.11642 v 0.0847 q -0.0106,0.0423 -0.0212,0.13759 0,0.0953 0.0212,0.13758 0.0106,0.0529 0,0.10583 -0.0106,0.0529 0,0.10584 0.0106,0.0423 0.0106,0.14816 0.0212,0.0847 0.0318,0.17992 0.0212,0.0952 0.0423,0.17992 0.11641,0.33866 0.26458,0.59266 0.15875,0.24342 0.43392,0.42334 0.0953,0.0529 0.1905,0.0952 0.10583,0.0423 0.22225,0.0847 0.0529,0.0106 0.0847,0.0106 0.0318,0 0.0847,0.0106 0.0318,0.0106 0.10583,0.0106 h 0.11642 q 0,0.0106 0.0423,0.0106 0.0212,-0.0106 0.0529,0 0.0318,0 0.0635,-0.0106 0.0741,-0.0212 0.13758,-0.0106 0.0741,0 0.14817,-0.0212 0.27517,-0.0847 0.47625,-0.21166 0.20108,-0.13759 0.33867,-0.34925 0.0529,-0.0847 0.0953,-0.17992 0.0423,-0.0952 0.0847,-0.1905 0.0212,-0.0847 0.0423,-0.15875 0.0318,-0.0847 0.10583,-0.13758 0.0317,-0.0318 0.127,-0.0423 0.0952,-0.0212 0.20108,-0.0212 0.11642,-0.0106 0.21167,0 0.10583,0.0106 0.14817,0.0423 0.0635,0.0423 0.0741,0.127 0.0212,0.0847 0,0.17992 -0.0529,0.15875 -0.10583,0.30691 -0.0423,0.13759 -0.11642,0.27517 -0.15875,0.3175 -0.40217,0.56092 -0.23283,0.24341 -0.5715,0.39158 -0.0847,0.0423 -0.17991,0.0741 -0.0952,0.0212 -0.20109,0.0529 -0.11641,0.0423 -0.23283,0.0423 -0.11642,0.0106 -0.23283,0.0318 -0.0423,0.0212 -0.0847,0.0106 -0.0423,-0.0106 -0.0847,0 h -0.0953 q -0.0847,0 -0.16933,0 -0.0741,0.0106 -0.13758,-0.0106 h -0.0529 l -0.254,-0.0318 q -0.13758,-0.0423 -0.26458,-0.0741 -0.127,-0.0318 -0.24342,-0.0847 -0.381,-0.16933 -0.635,-0.40216 -0.24342,-0.23284 -0.45508,-0.5715 -0.0529,-0.0847 -0.0953,-0.1905 -0.0423,-0.10584 -0.0847,-0.21167 -0.0529,-0.11642 -0.0741,-0.24342 -0.0212,-0.127 -0.0529,-0.254 -0.0106,-0.0423 -0.0106,-0.0847 0,-0.0423 -0.0106,-0.0847 -0.0212,-0.0635 -0.0212,-0.13758 0.0106,-0.0741 -0.0106,-0.13759 v -0.10583 q -0.0106,-0.0529 -0.0106,-0.14817 0,-0.0952 0.0106,-0.14816 0.0106,-0.0529 0,-0.0953 0,-0.0423 0.0106,-0.0847 0.0212,-0.0741 0.0106,-0.14817 0,-0.0741 0.0212,-0.13758 0.0423,-0.17992 0.0741,-0.35983 0.0318,-0.17992 0.0952,-0.33867 0.22225,-0.55033 0.53975,-0.889 0.3175,-0.33867 0.86783,-0.56092 0.11642,-0.0529 0.254,-0.0741 0.13759,-0.0212 0.28575,-0.0529 0.0741,-0.0106 0.14817,-0.0106 0.0741,-0.0106 0.15875,-0.0212 z" />
        <path
           id="path3845"
           style="font-style:normal;font-variant:normal;font-weight:normal;font-stretch:normal;font-family:'Alte Haas Grotesk';-inkscape-font-specification:'Alte Haas Grotesk';fill:#f2f2f2;stroke-width:0.26458332"
           d="m 120.00812,105.44771 q 0.762,-0.0106 1.28059,0.17992 0.51858,0.17992 0.80433,0.64558 0.0741,0.11642 0.11642,0.24342 0.0423,0.11642 0.0847,0.26458 0.0212,0.0741 0.0106,0.15875 -0.0106,0.0741 -0.0318,0.11642 -0.0212,0.0212 -0.0529,0.0423 -0.0318,0.0106 -0.0529,0.0318 -0.0529,0.0212 -0.10583,0.0106 -0.0529,-0.0106 -0.10583,0 -0.0847,0.0212 -0.22225,0.0106 -0.13759,-0.0212 -0.1905,-0.0529 -0.0847,-0.0529 -0.11642,-0.13758 -0.0212,-0.0952 -0.0741,-0.17992 -0.0952,-0.16933 -0.26459,-0.30691 -0.11641,-0.0847 -0.254,-0.127 -0.13758,-0.0423 -0.29633,-0.0847 -0.0529,-0.0212 -0.10583,-0.0106 -0.0529,0 -0.10584,-0.0106 -0.0635,-0.0212 -0.15875,-0.0212 -0.0953,0 -0.15875,0.0212 h -0.0635 q -0.0529,0.0106 -0.10583,0.0212 -0.0529,0 -0.10583,0.0106 -0.27517,0.0635 -0.45509,0.17992 -0.17991,0.11642 -0.24341,0.39158 -0.0212,0.0741 -0.0106,0.14817 0.0212,0.0741 0.0423,0.127 0.0635,0.15875 0.14816,0.23283 0.0952,0.0635 0.23284,0.14817 0.16933,0.10583 0.381,0.15875 0.21166,0.0423 0.42333,0.10583 0.13758,0.0423 0.27517,0.0635 0.13758,0.0212 0.27516,0.0635 0.22225,0.0635 0.43392,0.127 0.21167,0.0529 0.42333,0.13759 0.0529,0.0212 0.10584,0.0423 0.0529,0.0212 0.10583,0.0529 0.21167,0.127 0.37042,0.28575 0.15875,0.15875 0.26458,0.40216 0.0212,0.0741 0.0423,0.20109 0.0212,0.0741 0.0212,0.15875 0.0106,0.0741 0.0106,0.16933 v 0.10583 q -0.0212,0.0741 -0.0212,0.14817 0,0.0741 -0.0212,0.14817 -0.0318,0.11641 -0.0741,0.22225 -0.0423,0.10583 -0.0952,0.1905 -0.16934,0.27516 -0.43392,0.4445 -0.26458,0.15875 -0.59267,0.27516 -0.0953,0.0317 -0.20108,0.0423 -0.0953,0.0212 -0.1905,0.0529 -0.10583,0.0212 -0.21167,0.0212 -0.10583,0 -0.21166,0.0212 h -0.10584 q -0.0529,0.0106 -0.14816,0.0106 -0.0953,0 -0.14817,-0.0106 h -0.11642 q -0.0635,-0.0212 -0.13758,-0.0212 -0.0741,0.0106 -0.127,-0.0106 -0.0529,-0.0106 -0.13758,-0.0106 -0.0847,-0.0212 -0.16934,-0.0423 -0.0741,-0.0106 -0.15875,-0.0423 -0.32808,-0.10584 -0.5715,-0.26459 -0.24341,-0.15875 -0.42333,-0.41275 -0.0952,-0.13758 -0.15875,-0.28575 -0.0635,-0.14816 -0.11642,-0.32808 -0.0212,-0.0635 -0.0212,-0.14817 0.0106,-0.0952 0.0318,-0.14816 0.0318,-0.0423 0.10583,-0.0847 0.0529,-0.0212 0.14817,-0.0212 0.0953,-0.0106 0.1905,0 0.0953,0.0106 0.17991,0.0318 0.0952,0.0106 0.127,0.0318 0.0741,0.0529 0.0953,0.15875 0.0318,0.0953 0.0741,0.17992 0.10583,0.23283 0.28575,0.35983 0.127,0.0953 0.28575,0.14817 0.15875,0.0529 0.33866,0.10583 l 0.22225,0.0318 h 0.0635 q 0.0741,0.0212 0.1905,0.0212 0.127,0 0.21167,-0.0212 0.0741,0 0.11642,-0.0106 0.0635,-0.0106 0.127,-0.0106 0.0635,-0.0106 0.11641,-0.0212 0.30692,-0.0847 0.48684,-0.22225 0.17991,-0.13758 0.254,-0.46567 0.0212,-0.0529 0.0106,-0.11641 -0.0106,-0.0635 -0.0212,-0.0953 -0.0529,-0.20109 -0.14816,-0.29634 -0.0952,-0.10583 -0.24342,-0.1905 -0.0952,-0.0635 -0.21167,-0.10583 -0.11641,-0.0423 -0.23283,-0.0847 -0.0318,-0.0106 -0.0635,-0.0106 -0.0212,0 -0.0529,-0.0212 -0.35983,-0.11641 -0.75141,-0.16933 -0.381,-0.0635 -0.71967,-0.20108 -0.10583,-0.0423 -0.20108,-0.0741 -0.0952,-0.0318 -0.17992,-0.0847 -0.20108,-0.11642 -0.37042,-0.26459 -0.16933,-0.14816 -0.26458,-0.37041 -0.0318,-0.0741 -0.0529,-0.14817 -0.0106,-0.0741 -0.0318,-0.15875 -0.0318,-0.127 -0.0212,-0.28575 0.0106,-0.16933 0.0318,-0.28575 0.0212,-0.0529 0.0212,-0.0847 0.0106,-0.0423 0.0317,-0.0847 0.0953,-0.24342 0.254,-0.42334 0.16934,-0.17991 0.381,-0.3175 0.15875,-0.0952 0.34925,-0.14816 0.1905,-0.0635 0.40217,-0.11642 0.0741,-0.0106 0.13758,-0.0212 0.0741,-0.0106 0.15875,-0.0212 0.0318,-0.0106 0.0847,0 0.0529,0.0106 0.0741,-0.0106 z" />
      </g>
      <g
         id="text3807"
         style="font-style:normal;font-variant:normal;font-weight:400;font-size:1.02656436px;line-height:125%;font-family:Calibri;text-align:start;letter-spacing:0px;word-spacing:0px;text-anchor:start;fill:#f2f2f2;fill-opacity:1;stroke:none;stroke-width:0.06989375"
         transform="scale(0.99786472,1.0021399)"
         aria-label="© ">
        <path
           id="path3820"
           style="font-style:normal;font-variant:normal;font-weight:400;font-size:13.41959953px;font-family:Calibri;fill:#f2f2f2;stroke-width:0.06989375"
           d="m 40.786266,111.23449 q 1.015644,0 1.690555,-0.30142 0.674912,-0.30797 1.081169,-0.84527 0.406257,-0.53731 0.576623,-1.26464 0.176919,-0.73389 0.176919,-1.57261 0,-0.90425 -0.190024,-1.60538 -0.190023,-0.70767 -0.622491,-1.19256 -0.432467,-0.48489 -1.127037,-0.74043 -0.688016,-0.25555 -1.690555,-0.25555 -0.891145,0 -1.552951,0.25555 -0.661807,0.24899 -1.100827,0.74699 -0.43902,0.49799 -0.655254,1.24498 -0.209681,0.74699 -0.209681,1.74297 0,0.93702 0.203129,1.65124 0.203129,0.70768 0.635596,1.18601 0.43902,0.47179 1.127037,0.71423 0.688016,0.23589 1.657792,0.23589 z m 4.403306,-4.05602 q 0,1.24498 -0.294864,2.15578 -0.288312,0.90425 -0.858383,1.50054 -0.570071,0.58972 -1.402243,0.87804 -0.832172,0.28175 -1.913341,0.28175 -1.107379,0 -1.939552,-0.28175 -0.832172,-0.28176 -1.389138,-0.83873 -0.550413,-0.56352 -0.832172,-1.40224 -0.275207,-0.83873 -0.275207,-1.95921 0,-1.21877 0.281759,-2.12302 0.288312,-0.90425 0.845278,-1.50054 0.563518,-0.59628 1.39569,-0.89114 0.838725,-0.30142 1.939552,-0.30142 1.146694,0 1.978867,0.30142 0.832172,0.29486 1.382585,0.86493 0.550414,0.57008 0.812515,1.4088 0.268654,0.83217 0.268654,1.90679 z m -2.63412,2.01818 q 0,0.0983 -0.0066,0.17037 -0.0066,0.0721 -0.02621,0.13105 -0.01311,0.0524 -0.03276,0.0917 -0.01966,0.0393 -0.08518,0.0983 -0.05897,0.059 -0.216234,0.16381 -0.157261,0.10485 -0.366942,0.19658 -0.209681,0.0852 -0.471783,0.14416 -0.262101,0.0524 -0.556965,0.0524 -0.583176,0 -1.028749,-0.18347 -0.445573,-0.18348 -0.746989,-0.54386 -0.301417,-0.36695 -0.458678,-0.89115 -0.150709,-0.53076 -0.150709,-1.22532 0,-0.76665 0.183472,-1.32362 0.190023,-0.55696 0.51765,-0.9108 0.33418,-0.36039 0.786305,-0.53076 0.452125,-0.17691 0.976328,-0.17691 0.255549,0 0.484888,0.0524 0.235891,0.0459 0.432468,0.12449 0.203128,0.0786 0.366942,0.18347 0.163813,0.10485 0.235891,0.17692 0.07863,0.0721 0.09829,0.1114 0.02621,0.0393 0.03932,0.0917 0.01966,0.0524 0.02621,0.1245 0.0066,0.0721 0.0066,0.15726 0,0.0852 -0.01311,0.15726 -0.0131,0.0721 -0.03276,0.13105 -0.01966,0.0524 -0.05897,0.0852 -0.03276,0.0262 -0.08518,0.0262 -0.111393,0 -0.229338,-0.0917 -0.111394,-0.0983 -0.28176,-0.20968 -0.163813,-0.11795 -0.406257,-0.20968 -0.235891,-0.0983 -0.596281,-0.0983 -0.701122,0 -1.081169,0.53076 -0.373495,0.53075 -0.373495,1.54639 0,0.53076 0.09829,0.91736 0.09829,0.3866 0.288312,0.6487 0.196576,0.25555 0.478336,0.38005 0.281759,0.1245 0.648701,0.1245 0.334179,0 0.576623,-0.0983 0.242444,-0.10484 0.41281,-0.22934 0.176919,-0.1245 0.294864,-0.22279 0.117946,-0.10484 0.209682,-0.10484 0.03276,0 0.05897,0.0197 0.03276,0.0197 0.04587,0.0721 0.01966,0.0524 0.02621,0.1376 0.01311,0.0852 0.01311,0.20313 z" />
      </g>
    </g>
  </g>
</svg>
