<?xml version="1.0" encoding="UTF-8" standalone="no"?>
<!-- Created with Inkscape (http://www.inkscape.org/) -->

<svg
   xmlns:dc="http://purl.org/dc/elements/1.1/"
   xmlns:cc="http://creativecommons.org/ns#"
   xmlns:rdf="http://www.w3.org/1999/02/22-rdf-syntax-ns#"
   xmlns:svg="http://www.w3.org/2000/svg"
   xmlns="http://www.w3.org/2000/svg"
   xmlns:sodipodi="http://sodipodi.sourceforge.net/DTD/sodipodi-0.dtd"
   xmlns:inkscape="http://www.inkscape.org/namespaces/inkscape"
   width="210mm"
   height="297mm"
   id="svg3024"
   version="1.1"
   inkscape:version="0.92.3 (2405546, 2018-03-11)"
   sodipodi:docname="dynamics.svg">
  <defs
     id="defs3026" />
  <sodipodi:namedview
     id="base"
     pagecolor="#ffffff"
     bordercolor="#666666"
     borderopacity="1.0"
     inkscape:pageopacity="0.0"
     inkscape:pageshadow="2"
     inkscape:zoom="7.9195959"
     inkscape:cx="257.90019"
     inkscape:cy="558.65408"
     inkscape:document-units="px"
     inkscape:current-layer="layer1"
     showgrid="false"
     inkscape:window-width="5431"
     inkscape:window-height="2868"
     inkscape:window-x="-18"
     inkscape:window-y="-18"
     inkscape:window-maximized="1" />
  <metadata
     id="metadata3029">
    <rdf:RDF>
      <cc:Work
         rdf:about="">
        <dc:format>image/svg+xml</dc:format>
        <dc:type
           rdf:resource="http://purl.org/dc/dcmitype/StillImage" />
        <dc:title></dc:title>
      </cc:Work>
    </rdf:RDF>
  </metadata>
  <g
     inkscape:label="Ebene 1"
     inkscape:groupmode="layer"
     id="layer1">
    <g
       aria-label="dynamics"
       style="font-style:oblique;font-variant:normal;font-weight:normal;font-stretch:normal;line-height:0%;font-family:'Palace Script MT';-inkscape-font-specification:'Palace Script MT Oblique';text-align:start;letter-spacing:0px;word-spacing:0px;writing-mode:lr-tb;text-anchor:start;fill:#f9f9f9;fill-opacity:1;stroke:none"
       id="text3032">
      <path
         d="m 224.88028,538.58984 q -1.60156,0 -4.57031,2.26563 -2.96875,2.22656 -5.27344,5.07812 -2.26563,2.8125 -2.26563,4.41407 0,1.28906 1.21094,1.28906 1.71875,0 4.72656,-2.22656 3.04688,-2.26563 5.39063,-5.07813 2.38281,-2.8125 2.38281,-4.29687 0,-1.44532 -1.60156,-1.44532 z m 1.67969,3.20313 21.09375,-24.10156 h 3.20312 l -24.60937,28.08593 q -0.82032,0.9375 -1.79688,2.10938 -0.97656,1.17187 -1.44531,1.83594 -0.42969,0.66406 -0.625,1.28906 -0.15625,0.625 0.58594,0.625 0.97656,0 4.80468,-3.00781 3.82813,-3.04688 7.1875,-6.05469 v 0.66406 q -4.60937,4.02344 -7.77343,6.48438 -3.125,2.46093 -4.57032,2.46093 -1.01562,0 -1.01562,-1.21093 0,-1.5625 1.09375,-4.0625 0,-0.0391 -0.0781,-0.0781 -0.0391,-0.0781 -0.0781,-0.0781 -5.42969,5.42968 -8.55469,5.42968 -2.22656,0 -2.22656,-3.67187 0,-2.89063 2.1875,-5.3125 2.1875,-2.42188 5.39062,-3.78906 3.20313,-1.36719 5.70313,-1.36719 1.99219,0 1.99219,1.67969 0,1.17187 -0.46875,2.07031 z"
         style="font-style:oblique;font-variant:normal;font-weight:normal;font-stretch:normal;font-size:80px;line-height:125%;font-family:'Palace Script MT';-inkscape-font-specification:'Palace Script MT Oblique';text-align:start;writing-mode:lr-tb;text-anchor:start;fill:#f9f9f9"
         id="path3735" />
      <path
         d="m 239.9584,555.54297 q -8.20312,4.10156 -13.86718,8.28125 -5.70313,4.17969 -5.70313,6.99219 0,0.70312 0.50781,1.13281 0.46875,0.46875 1.17188,0.46875 1.36719,0 3.08594,-0.97656 1.71875,-0.9375 3.86718,-2.96875 2.10938,-2.03125 4.96094,-5.39063 1.52344,-1.875 3.28125,-4.0625 1.79688,-2.14844 2.69531,-3.47656 z m -5.97656,-11.36719 v -0.625 q 3.125,-2.69531 5.11719,-4.10156 2.03125,-1.40625 3.51562,-1.40625 1.21094,0 1.21094,1.60156 0,3.39844 -4.64844,7.5 -3.35937,2.96875 -3.35937,3.90625 0,0.58594 0.70312,0.58594 1.44532,0 5,-2.38281 3.59375,-2.42188 7.42188,-5.58594 3.86719,-3.20313 5.97656,-5.3125 h 2.96875 l -12.53906,14.29687 q 4.375,-1.75781 7.5,-3.82812 3.16406,-2.10938 7.92969,-6.25 v 0.66406 q -4.45313,4.10156 -7.8125,6.28906 -3.35938,2.1875 -8.51563,4.10157 l -0.70312,0.78125 q -8.16407,9.14062 -13.20313,13.86718 -5.03906,4.72657 -8.32031,4.72657 -2.42188,0 -2.42188,-2.26563 0,-1.64062 2.22657,-4.14062 2.1875,-2.46094 6.83593,-5.50782 4.64844,-3.00781 11.83594,-6.32812 3.82813,-4.92188 9.92188,-11.60156 -4.14063,3.20312 -5.46875,4.21875 -1.32813,1.01562 -3.16407,2.30468 -1.83593,1.25 -3.28125,1.875 -1.40625,0.625 -2.5,0.625 -0.66406,0 -1.09375,-0.42968 -0.42968,-0.42969 -0.42968,-1.17188 0,-1.28906 0.50781,-2.46094 0.50781,-1.17187 1.60156,-2.34375 1.13281,-1.21093 3.00781,-2.61718 3.35938,-2.5 3.35938,-3.86719 0,-0.70313 -0.78125,-0.70313 -1.32813,0 -3.4375,1.60157 -2.10938,1.60156 -4.96094,3.98437 z"
         style="font-style:oblique;font-variant:normal;font-weight:normal;font-stretch:normal;font-size:80px;line-height:125%;font-family:'Palace Script MT';-inkscape-font-specification:'Palace Script MT Oblique';text-align:start;writing-mode:lr-tb;text-anchor:start;fill:#f9f9f9"
         id="path3737" />
      <path
         d="m 259.84122,544.17578 v -0.625 q 5.9375,-5.50781 8.32031,-5.50781 1.32812,0 1.32812,1.67969 0,1.32812 -0.82031,2.61718 -0.82031,1.28907 -3.32031,4.49219 4.84375,-4.02344 8.39844,-6.40625 3.55468,-2.38281 6.09375,-2.38281 1.32812,0 1.32812,1.83594 0,1.79687 -1.25,3.59375 -1.25,1.75781 -4.10156,3.82812 -3.04688,2.30469 -3.04688,3.28125 0,0.39063 0.35157,0.74219 0.39062,0.3125 0.78125,0.3125 1.36718,0 3.59375,-1.48438 2.26562,-1.52343 4.92187,-3.82812 2.65625,-2.34375 4.29688,-3.75 v 0.66406 q -2.38282,2.22656 -4.64844,4.17969 -2.26563,1.91406 -4.53125,3.35937 -2.22656,1.40625 -3.71094,1.40625 -0.9375,0 -1.36719,-0.625 -0.39062,-0.625 -0.39062,-1.28906 0,-1.48437 1.17187,-3.32031 1.17188,-1.875 3.24219,-3.63281 2.38281,-2.10938 3.28125,-3.35938 0.9375,-1.28906 -0.50781,-1.28906 -1.83594,0 -5.54688,2.5 -3.71093,2.46094 -6.95312,5.23437 -3.24219,2.73438 -6.13281,5.39063 h -3.04688 l 5.19531,-5.85938 q 5.70313,-6.36718 5.70313,-6.95312 0,-0.39063 -0.46875,-0.39063 -1.71875,0 -8.16406,5.58594 z"
         style="font-style:oblique;font-variant:normal;font-weight:normal;font-stretch:normal;font-size:80px;line-height:125%;font-family:'Palace Script MT';-inkscape-font-specification:'Palace Script MT Oblique';text-align:start;writing-mode:lr-tb;text-anchor:start;fill:#f9f9f9"
         id="path3739" />
      <path
         d="m 297.30215,538.58984 q -2.34375,0 -5.23437,2.30469 -2.85156,2.30469 -5,5.23438 -2.10938,2.92968 -2.10938,4.14062 0,0.58594 0.39063,0.97656 0.39062,0.39063 0.97656,0.39063 1.60156,0 4.60938,-2.22656 3.00781,-2.22657 5.42968,-5.03907 2.42188,-2.8125 2.42188,-4.41406 0,-1.36719 -1.48438,-1.36719 z m 10.3125,4.80469 -1.99218,1.67969 q -4.6875,3.90625 -6.95313,5.50781 -2.22656,1.60156 -3.94531,1.60156 -1.13281,0 -1.13281,-1.28906 0,-1.36719 1.05468,-3.82812 -5.58593,5.11718 -8.24218,5.11718 -1.17188,0 -1.91407,-0.89843 -0.74218,-0.9375 -0.74218,-2.69532 0,-1.99218 1.17187,-3.90625 1.17188,-1.95312 3.125,-3.4375 1.99219,-1.48437 4.41406,-2.34375 2.46094,-0.85937 4.76563,-0.85937 1.13281,0 1.64062,0.42969 0.54688,0.39062 0.58594,1.32812 -0.0391,0.19531 -0.0781,0.39063 0,0.15625 -0.0781,0.46875 -0.0391,0.3125 -0.0781,0.50781 l 2.46093,-2.89063 3.28125,-0.23437 -1.01562,1.25 q -1.25,1.48437 -2.03125,2.46094 -0.78125,0.9375 -1.32813,1.5625 -6.09375,6.60156 -6.09375,7.73437 0,0.58594 0.54688,0.58594 0.74219,0 2.22656,-0.85938 1.48438,-0.89843 3.32031,-2.34375 1.875,-1.44531 4.25782,-3.39843 2.38281,-1.99219 2.77343,-2.30469 z"
         style="font-style:oblique;font-variant:normal;font-weight:normal;font-stretch:normal;font-size:80px;line-height:125%;font-family:'Palace Script MT';-inkscape-font-specification:'Palace Script MT Oblique';text-align:start;writing-mode:lr-tb;text-anchor:start;fill:#f9f9f9"
         id="path3741" />
      <path
         d="m 306.63809,544.17578 v -0.70312 q 2.89063,-2.61719 4.84375,-4.02344 1.95313,-1.40625 3.47656,-1.40625 1.25,0 1.25,1.67969 0,1.40625 -0.82031,2.73437 -0.82031,1.28906 -2.77344,3.75 5.46875,-4.49219 8.20313,-6.32812 2.77344,-1.83594 4.76562,-1.83594 1.44532,0 1.44532,1.32812 0,2.65625 -3.90625,7.30469 l 1.09375,-0.82031 q 2.61718,-1.91406 5,-3.67188 2.38281,-1.75781 4.57031,-2.92968 2.22656,-1.21094 3.55469,-1.21094 0.625,0 0.97656,0.50781 0.39062,0.46875 0.39062,1.40625 0,1.79688 -1.21093,3.55469 -1.17188,1.71875 -4.0625,3.86719 -1.17188,0.85937 -2.22657,1.99218 -1.05468,1.13282 -1.05468,1.52344 0,0.74219 1.09375,0.74219 1.71875,0 4.53125,-2.07031 2.85156,-2.10938 8.4375,-6.83594 v 0.66406 q -5.3125,4.57031 -8.16407,6.67969 -2.8125,2.10937 -4.96093,2.10937 -1.52344,0 -1.52344,-1.52343 0,-1.67969 1.13281,-3.39844 1.13281,-1.71875 3.82813,-4.25781 3.125,-2.92969 3.125,-3.71094 0,-0.70313 -0.625,-0.70313 -1.01563,0 -4.41407,2.1875 -3.39843,2.14844 -7.53906,5.35157 -4.10156,3.16406 -6.75781,5.66406 h -3.28125 l 6.05469,-6.64063 q 0.625,-0.66406 1.875,-1.99218 1.28906,-1.32813 2.1875,-2.38282 0.89843,-1.09375 0.89843,-1.48437 0,-0.19531 -0.19531,-0.39063 -0.15625,-0.23437 -0.50781,-0.23437 -2.1875,0 -6.52344,3.39844 -4.33594,3.39843 -10.19531,8.67187 l -1.13281,1.05469 h -3.35938 l 8.24219,-9.21875 q 2.8125,-2.89063 2.8125,-3.4375 0,-0.54688 -0.46875,-0.54688 -0.66406,0 -1.99219,0.85938 -1.32812,0.82031 -2.89062,2.07031 -1.5625,1.25 -3.20313,2.65625 z"
         style="font-style:oblique;font-variant:normal;font-weight:normal;font-stretch:normal;font-size:80px;line-height:125%;font-family:'Palace Script MT';-inkscape-font-specification:'Palace Script MT Oblique';text-align:start;writing-mode:lr-tb;text-anchor:start;fill:#f9f9f9"
         id="path3743" />
      <path
         d="m 356.95059,530.11328 q 0.85938,0 0.85938,1.05469 0,0.625 -0.35157,1.01562 -0.35156,0.39063 -0.89843,0.39063 -1.05469,0 -1.05469,-0.9375 0,-0.54688 0.42969,-1.01563 0.42968,-0.50781 1.01562,-0.50781 z m -13.51562,13.98438 -0.0781,-0.625 q 2.96875,-2.69532 6.95313,-5.11719 h 3.51562 l -9.21875,10.3125 q -0.97656,1.09375 -1.25,2.03125 -0.27344,0.9375 0.46875,0.9375 1.95313,0 5.82031,-2.89063 3.86719,-2.89062 7.14844,-6.09375 v 0.66407 q -3.78906,3.63281 -7.30469,6.25 -3.51562,2.61718 -5.74218,2.61718 -1.28907,0 -1.28907,-1.36718 0,-4.0625 6.32813,-10.39063 0.35156,-0.35156 0.625,-0.66406 0.3125,-0.35156 0.58594,-0.625 -3.51563,2.10937 -6.5625,4.96094 z"
         style="font-style:oblique;font-variant:normal;font-weight:normal;font-stretch:normal;font-size:80px;line-height:125%;font-family:'Palace Script MT';-inkscape-font-specification:'Palace Script MT Oblique';text-align:start;writing-mode:lr-tb;text-anchor:start;fill:#f9f9f9"
         id="path3745" />
      <path
         d="m 372.65372,542.57422 v 0.66406 q -9.25782,8.94531 -15.42969,8.94531 -1.64063,0 -2.38281,-0.82031 -0.74219,-0.85937 -0.74219,-3.00781 0,-1.875 1.21094,-3.78906 1.17187,-1.91407 3.125,-3.35938 1.95312,-1.48437 4.29687,-2.30469 2.34375,-0.85937 4.57031,-0.85937 1.01563,0 1.64063,0.50781 0.66406,0.50781 0.66406,1.40625 0,1.01563 -0.82031,1.83594 -0.78125,0.78125 -1.75781,0.78125 -1.17188,0 -1.17188,-1.01563 0,-1.52343 1.36719,-1.52343 0.78125,0 0.9375,0.70312 0.15625,0.23438 0.3125,0.23438 0.19531,0 0.39062,-0.3125 0.19532,-0.3125 0.19532,-0.70313 0,-0.625 -0.42969,-0.97656 -0.42969,-0.39063 -1.17188,-0.39063 -2.07031,0 -5.03906,2.22657 -2.92969,2.22656 -5.07812,5.07812 -2.14844,2.85156 -2.14844,4.45313 0,1.28906 1.91406,1.28906 3.55469,0 6.91406,-2.1875 3.35938,-2.1875 8.63282,-6.875 z"
         style="font-style:oblique;font-variant:normal;font-weight:normal;font-stretch:normal;font-size:80px;line-height:125%;font-family:'Palace Script MT';-inkscape-font-specification:'Palace Script MT Oblique';text-align:start;writing-mode:lr-tb;text-anchor:start;fill:#f9f9f9"
         id="path3747" />
      <path
         d="m 371.79434,543.55078 8.16406,-7.03125 q 0.9375,-1.13281 1.71875,-2.07031 0.78125,-0.97656 1.13282,-0.97656 0.3125,0 0.54687,0.19531 0.27344,0.15625 0.27344,0.50781 0,0.74219 -2.14844,1.83594 1.25,1.875 1.79688,3.28125 0.54687,1.40625 0.66406,3.55469 -0.11719,1.32812 -0.3125,2.22656 1.40625,0.35156 2.53906,-0.0391 1.17188,-0.42969 3.20313,-2.46094 v 0.66406 q -1.5625,1.95313 -2.89063,2.42188 -1.32812,0.46875 -3.08594,-0.0391 -0.9375,2.10938 -3.04687,3.63282 -2.10938,1.48437 -4.33594,2.22656 -2.22656,0.70312 -3.82812,0.70312 -1.52344,0 -2.46094,-0.58593 -0.97656,-0.625 -0.97656,-1.71875 0,-0.97657 0.58593,-1.5625 0.54688,-0.625 1.64063,-0.625 0.70312,0 1.17187,0.39062 0.42969,0.35156 0.42969,0.97656 0,0.50782 -0.46875,0.89844 -0.50781,0.39063 -1.05469,0.39063 -0.74218,0 -1.09375,-1.21094 -0.50781,0.35156 -0.50781,1.05469 0,0.42968 0.82031,0.9375 0.78125,0.50781 1.83594,0.50781 2.07031,0 4.375,-1.75781 2.30469,-1.79688 3.82813,-4.49219 1.5625,-2.69531 1.5625,-5.19531 0,-1.79688 -1.13282,-3.67188 l -8.94531,7.65625 z"
         style="font-style:oblique;font-variant:normal;font-weight:normal;font-stretch:normal;font-size:80px;line-height:125%;font-family:'Palace Script MT';-inkscape-font-specification:'Palace Script MT Oblique';text-align:start;writing-mode:lr-tb;text-anchor:start;fill:#f9f9f9"
         id="path3749" />
    </g>
  </g>
</svg>
