<?xml version="1.0" encoding="UTF-8" standalone="no"?>
<!-- Created with Inkscape (http://www.inkscape.org/) -->

<svg
   xmlns:dc="http://purl.org/dc/elements/1.1/"
   xmlns:cc="http://creativecommons.org/ns#"
   xmlns:rdf="http://www.w3.org/1999/02/22-rdf-syntax-ns#"
   xmlns:svg="http://www.w3.org/2000/svg"
   xmlns="http://www.w3.org/2000/svg"
   xmlns:sodipodi="http://sodipodi.sourceforge.net/DTD/sodipodi-0.dtd"
   xmlns:inkscape="http://www.inkscape.org/namespaces/inkscape"
   width="210mm"
   height="297mm"
   viewBox="0 0 210 297"
   version="1.1"
   id="svg3907"
   inkscape:version="0.92.3 (2405546, 2018-03-11)"
   sodipodi:docname="vaporizer2.svg">
  <defs
     id="defs3901" />
  <sodipodi:namedview
     id="base"
     pagecolor="#ffffff"
     bordercolor="#666666"
     borderopacity="1.0"
     inkscape:pageopacity="0.0"
     inkscape:pageshadow="2"
     inkscape:zoom="7.919596"
     inkscape:cx="411.27982"
     inkscape:cy="654.49731"
     inkscape:document-units="mm"
     inkscape:current-layer="layer1"
     showgrid="false"
     inkscape:window-width="6583"
     inkscape:window-height="3516"
     inkscape:window-x="-18"
     inkscape:window-y="-18"
     inkscape:window-maximized="1" />
  <metadata
     id="metadata3904">
    <rdf:RDF>
      <cc:Work
         rdf:about="">
        <dc:format>image/svg+xml</dc:format>
        <dc:type
           rdf:resource="http://purl.org/dc/dcmitype/StillImage" />
        <dc:title />
      </cc:Work>
    </rdf:RDF>
  </metadata>
  <g
     inkscape:label="Ebene 1"
     inkscape:groupmode="layer"
     id="layer1">
    <g
       aria-label="VAPORIZER2"
       style="font-style:normal;font-weight:normal;font-size:10.58333302px;line-height:1.25;font-family:sans-serif;letter-spacing:0px;word-spacing:0px;fill:#62a487;fill-opacity:1;stroke:none;stroke-width:0.26458332"
       id="text835">
      <path
         d="m 58.26499,135.47302 q -0.08467,-0.17991 -0.08467,-0.37041 0,-0.40217 0.34925,-0.68792 0.34925,-0.28575 0.772583,-0.28575 0.560917,0 0.79375,0.48683 l 2.31775,4.84717 q 0.211667,0.4445 0.5715,0.4445 0.338667,0 0.518583,-0.39158 l 2.328334,-5.19642 q -0.04233,0.16933 -0.04233,0.32808 0,0.67734 0.613834,0.9525 0.211666,0.0952 0.423333,0.0952 0.486833,0 0.85725,-0.508 l -0.635,1.397 -2.275417,4.96359 q -0.232833,0.508 -0.709083,0.78316 -0.47625,0.26459 -1.037167,0.26459 -0.5715,0 -1.058333,-0.27517 -0.529166,-0.30692 -0.79375,-0.86783 z"
         style="font-style:normal;font-variant:normal;font-weight:normal;font-stretch:normal;font-family:'13_Roshi';-inkscape-font-specification:'13_Roshi';letter-spacing:0.26458332px;stroke-width:0.26458332;fill:#62a487;fill-opacity:1"
         id="path874" />
      <path
         d="m 75.424128,141.25152 q 0.08467,0.17992 0.08467,0.35984 0,0.41275 -0.34925,0.6985 -0.34925,0.27516 -0.772583,0.27516 -0.560917,0 -0.79375,-0.47625 l -2.31775,-4.84716 q -0.211667,-0.4445 -0.582084,-0.4445 -0.328083,0 -0.508,0.381 l -2.328333,5.207 q 0.04233,-0.16934 0.04233,-0.32809 0,-0.68791 -0.613833,-0.96308 -0.211667,-0.0953 -0.423333,-0.0953 -0.486833,0 -0.85725,0.51858 l 0.624417,-1.40758 2.285999,-4.953 q 0.232834,-0.508 0.709084,-0.78317 0.47625,-0.27516 1.026583,-0.27516 0.582083,0 1.068917,0.28575 0.529166,0.30691 0.79375,0.85725 z m -5.545666,-1.64041 q 0,-0.37042 0.243416,-0.635 0.243417,-0.27517 0.60325,-0.27517 0.359834,0 0.60325,0.27517 0.254,0.26458 0.254,0.635 0,0.35983 -0.254,0.635 -0.243416,0.27516 -0.60325,0.27516 -0.359833,0 -0.60325,-0.27516 -0.243416,-0.27517 -0.243416,-0.635 z"
         style="font-style:normal;font-variant:normal;font-weight:normal;font-stretch:normal;font-family:'13_Roshi';-inkscape-font-specification:'13_Roshi';letter-spacing:0.26458332px;stroke-width:0.26458332;fill:#62a487;fill-opacity:1"
         id="path876" />
      <path
         d="m 84.827833,136.62661 q 0,0.889 -0.635,1.651 -0.66675,0.80433 -1.524,0.80433 h -3.84175 q -0.264583,0 -0.47625,-0.30692 -0.1905,-0.27516 -0.1905,-0.56091 0,-0.26459 0.22225,-0.5715 0.232833,-0.30692 0.497417,-0.30692 h 3.831166 q 0.201084,0 0.402167,-0.24342 0.211667,-0.24341 0.211667,-0.43391 0,-0.22225 -0.179917,-0.48684 -0.179917,-0.27516 -0.391583,-0.27516 h -5.545667 q 0.772584,-0.0952 0.772584,-0.85725 0,-0.71967 -0.846667,-0.92075 H 82.69 q 0.994833,0 1.5875,0.77258 0.550333,0.71967 0.550333,1.73567 z m -8.519583,5.04825 q 0,-0.35984 0.243417,-0.635 0.254,-0.27517 0.613833,-0.27517 0.359833,0 0.60325,0.27517 0.243417,0.27516 0.243417,0.635 0,0.37041 -0.243417,0.64558 -0.243417,0.26458 -0.60325,0.26458 -0.359833,0 -0.613833,-0.26458 -0.243417,-0.27517 -0.243417,-0.64558 z m -0.01058,-2.3495 q 0,-0.37042 0.243416,-0.635 0.243417,-0.27517 0.60325,-0.27517 0.359834,0 0.60325,0.27517 0.254,0.26458 0.254,0.635 0,0.35983 -0.254,0.635 -0.243416,0.26458 -0.60325,0.26458 -0.359833,0 -0.60325,-0.26458 -0.243416,-0.27517 -0.243416,-0.635 z m 0,-2.21192 q 0,-0.37042 0.243416,-0.635 0.243417,-0.27517 0.60325,-0.27517 0.359834,0 0.60325,0.27517 0.254,0.26458 0.254,0.635 0,0.35983 -0.254,0.635 -0.243416,0.27517 -0.60325,0.27517 -0.359833,0 -0.60325,-0.27517 -0.243416,-0.27517 -0.243416,-0.635 z"
         style="font-style:normal;font-variant:normal;font-weight:normal;font-stretch:normal;font-family:'13_Roshi';-inkscape-font-specification:'13_Roshi';letter-spacing:0.26458332px;stroke-width:0.26458332;fill:#62a487;fill-opacity:1"
         id="path878" />
      <path
         d="m 91.580413,140.77527 q 0.402166,0 0.624416,-0.29633 0.22225,-0.29633 0.22225,-0.6985 l 0.01058,-2.99508 q 0,-0.67734 -0.66675,-0.85725 -0.211667,-0.0529 -1.058334,-0.0529 0.804334,-0.22225 0.804334,-0.89958 0,-0.70909 -0.751417,-0.85725 h 0.85725 q 1.36525,0.0106 1.989667,0.75141 0.592666,0.68792 0.592666,2.07434 v 2.88925 q -0.01058,1.10066 -0.624416,1.88383 -0.66675,0.86783 -1.725084,0.86783 h -4.085166 q -1.058333,0 -1.725083,-0.84666 -0.613834,-0.78317 -0.613834,-1.87325 v -2.88925 q 0,-2.8575 2.57175,-2.84692 h 0.910167 q -0.79375,0.14817 -0.79375,0.87842 0,0.73025 0.783166,0.889 -0.920749,0 -1.121833,0.0529 -0.582083,0.16934 -0.582083,0.86784 l 0.01058,2.99508 q 0,0.41275 0.211667,0.68792 0.211667,0.27516 0.613833,0.27516 z m -2.582334,-5.74675 q 0,-0.35983 0.243417,-0.62441 0.254,-0.27517 0.60325,-0.27517 0.359833,0 0.60325,0.27517 0.243417,0.26458 0.243417,0.62441 0,0.35984 -0.243417,0.635 -0.243417,0.26459 -0.60325,0.26459 -0.34925,0 -0.60325,-0.26459 -0.243417,-0.27516 -0.243417,-0.635 z"
         style="font-style:normal;font-variant:normal;font-weight:normal;font-stretch:normal;font-family:'13_Roshi';-inkscape-font-specification:'13_Roshi';letter-spacing:0.26458332px;stroke-width:0.26458332;fill:#62a487;fill-opacity:1"
         id="path880" />
      <path
         d="m 100.14076,138.99727 h 1.55575 q 0.14817,0 0.43392,-0.11641 0.62441,-0.254 1.04775,-0.93134 0.43391,-0.67733 0.43391,-1.37583 0,-0.91017 -0.66675,-1.67217 -0.66675,-0.77258 -1.54516,-0.77258 -0.0106,0 -2.667005,0 -2.645833,0 -2.645833,0 0.814917,0.33867 0.814917,0.8255 0,0.74083 -0.762,0.89958 h 5.429251 q 0.26458,0 0.43392,0.26459 0.14816,0.22225 0.14816,0.48683 0,0.254 -0.10583,0.4445 -0.127,0.23283 -0.35983,0.23283 h -3.926421 q -0.34925,0 -0.53975,0.254 -0.1905,0.254 -0.1905,0.61384 0,0.37041 0.306916,0.68791 l 3.481915,3.48192 q 0.26459,0.26458 0.75142,0.26458 0.33867,0 0.59267,-0.17991 l -0.17992,0.0847 q 0.16933,0 0.32808,-0.33866 0.14817,-0.30692 0.14817,-0.51859 0,-0.32808 -0.14817,-0.46566 z m -4.826001,2.59292 q 0,-0.35983 0.243417,-0.62442 0.243416,-0.26458 0.592666,-0.26458 0.359834,0 0.592667,0.26458 0.243416,0.26459 0.243416,0.62442 0,0.35983 -0.243416,0.62442 -0.232833,0.26458 -0.592667,0.26458 -0.34925,0 -0.592666,-0.26458 -0.243417,-0.26459 -0.243417,-0.62442 z m -0.01058,-2.30717 q 0,-0.35983 0.232833,-0.62441 0.243417,-0.27517 0.60325,-0.27517 0.34925,0 0.582083,0.27517 0.243417,0.26458 0.243417,0.62441 0,0.34925 -0.243417,0.62442 -0.232833,0.26458 -0.582083,0.26458 -0.359833,0 -0.60325,-0.26458 -0.232833,-0.27517 -0.232833,-0.62442 z m 0,-2.16958 q 0,-0.35983 0.232833,-0.62442 0.243417,-0.26458 0.60325,-0.26458 0.34925,0 0.582083,0.26458 0.243417,0.26459 0.243417,0.62442 0,0.35983 -0.243417,0.62442 -0.232833,0.26458 -0.582083,0.26458 -0.359833,0 -0.60325,-0.26458 -0.232833,-0.26459 -0.232833,-0.62442 z"
         style="font-style:normal;font-variant:normal;font-weight:normal;font-stretch:normal;font-family:'13_Roshi';-inkscape-font-specification:'13_Roshi';letter-spacing:0.26458332px;stroke-width:0.26458332;fill:#62a487;fill-opacity:1"
         id="path882" />
      <path
         d="m 104.32986,134.11836 h 6.57225 q 0.39158,0 0.62441,0.30691 0.20109,0.26459 0.20109,0.65617 0,0.381 -0.1905,0.635 -0.22225,0.28575 -0.59267,0.28575 h -1.78858 v 4.699 h 2.48708 q -0.41275,0.0741 -0.64558,0.34925 -0.22225,0.27517 -0.22225,0.61383 0,0.32809 0.20108,0.5715 0.23283,0.27517 0.635,0.34925 h -6.57225 q -0.381,0 -0.59267,-0.28575 -0.20108,-0.254 -0.20108,-0.635 0,-0.39158 0.22225,-0.67733 0.22225,-0.28575 0.60325,-0.28575 h 2.20133 v -4.699 h -2.91041 q 0.41275,-0.0741 0.635,-0.34925 0.21166,-0.24342 0.21166,-0.5715 0,-0.32808 -0.23283,-0.60325 -0.23283,-0.28575 -0.64558,-0.35983 z"
         style="font-style:normal;font-variant:normal;font-weight:normal;font-stretch:normal;font-family:'13_Roshi';-inkscape-font-specification:'13_Roshi';letter-spacing:0.26458332px;stroke-width:0.26458332;fill:#62a487;fill-opacity:1"
         id="path884" />
      <path
         d="m 120.05131,142.59561 q 0.41275,0 0.65617,-0.254 0.24342,-0.26459 0.24342,-0.65617 0,-0.39158 -0.24342,-0.62442 -0.23283,-0.24341 -0.65617,-0.24341 l -4.43441,0.0106 q -0.508,0 -0.508,-0.30692 0,-0.24341 0.3175,-0.48683 l 5.16466,-3.88408 q 0.33867,-0.29634 0.33867,-0.71967 0,-0.32808 -0.22225,-0.61383 -0.28575,-0.381 -0.71967,-0.381 -0.3175,0 -0.61383,0.22225 l -6.1595,4.52966 q -0.68792,0.508 -0.68792,1.41817 0,0.77258 0.48684,1.35467 0.52916,0.62441 1.31233,0.62441 z m -4.21216,-6.7945 q -0.34925,0 -0.62442,-0.24342 -0.26458,-0.24342 -0.26458,-0.59267 0,-0.35983 0.26458,-0.59266 0.27517,-0.24342 0.62442,-0.24342 0.35983,0 0.62441,0.24342 0.27517,0.23283 0.27517,0.59266 0,0.34925 -0.27517,0.59267 -0.26458,0.24342 -0.62441,0.24342 z m -2.44475,0 q -0.34925,0 -0.62442,-0.23284 -0.26458,-0.24341 -0.26458,-0.60325 0,-0.34925 0.26458,-0.59266 0.27517,-0.24342 0.62442,-0.24342 0.35983,0 0.62441,0.24342 0.27517,0.24341 0.27517,0.59266 0,0.35984 -0.27517,0.60325 -0.26458,0.23284 -0.62441,0.23284 z"
         style="font-style:normal;font-variant:normal;font-weight:normal;font-stretch:normal;font-family:'13_Roshi';-inkscape-font-specification:'13_Roshi';letter-spacing:0.26458332px;stroke-width:0.26458332;fill:#62a487;fill-opacity:1"
         id="path886" />
      <path
         d="m 127.54771,134.11836 q 0.34925,0 0.55033,0.26458 0.21167,0.254 0.21167,0.61383 0,0.37042 -0.21167,0.62442 -0.22225,0.28575 -0.58208,0.28575 l -3.24909,-0.0106 q -0.40216,0 -0.635,0.33866 -0.21166,0.29634 -0.21166,0.71967 v 2.88925 q 0,0.381 0.22225,0.65617 0.22225,0.27516 0.60325,0.27516 h 2.97391 q -0.83608,0.15875 -0.83608,0.93134 0,0.71966 0.80433,0.87841 h -2.91041 q -2.63525,0 -2.63525,-2.84691 v -2.89984 q 0,-1.09008 0.61383,-1.87325 0.66675,-0.84666 1.73567,-0.84666 z m -3.33375,4.27566 q 0,-0.35983 0.24341,-0.635 0.24342,-0.27516 0.60325,-0.27516 0.35984,0 0.60325,0.27516 0.24342,0.27517 0.24342,0.635 0,0.35984 -0.24342,0.635 -0.24341,0.26459 -0.60325,0.26459 -0.35983,0 -0.60325,-0.26459 -0.24341,-0.27516 -0.24341,-0.635 z"
         style="font-style:normal;font-variant:normal;font-weight:normal;font-stretch:normal;font-family:'13_Roshi';-inkscape-font-specification:'13_Roshi';letter-spacing:0.26458332px;stroke-width:0.26458332;fill:#62a487;fill-opacity:1"
         id="path888" />
      <path
         d="m 134.66475,138.99727 h 1.55575 q 0.14817,0 0.43392,-0.11641 0.62441,-0.254 1.04775,-0.93134 0.43391,-0.67733 0.43391,-1.37583 0,-0.91017 -0.66675,-1.67217 -0.66675,-0.77258 -1.54516,-0.77258 -0.0106,0 -2.667,0 -2.64584,0 -2.64584,0 0.81492,0.33867 0.81492,0.8255 0,0.74083 -0.762,0.89958 h 5.42925 q 0.26458,0 0.43392,0.26459 0.14816,0.22225 0.14816,0.48683 0,0.254 -0.10583,0.4445 -0.127,0.23283 -0.35983,0.23283 h -3.92642 q -0.34925,0 -0.53975,0.254 -0.1905,0.254 -0.1905,0.61384 0,0.37041 0.30692,0.68791 l 3.48191,3.48192 q 0.26459,0.26458 0.75142,0.26458 0.33867,0 0.59267,-0.17991 l -0.17992,0.0847 q 0.16933,0 0.32808,-0.33866 0.14817,-0.30692 0.14817,-0.51859 0,-0.32808 -0.14817,-0.46566 z m -4.826,2.59292 q 0,-0.35983 0.24342,-0.62442 0.24341,-0.26458 0.59266,-0.26458 0.35984,0 0.59267,0.26458 0.24342,0.26459 0.24342,0.62442 0,0.35983 -0.24342,0.62442 -0.23283,0.26458 -0.59267,0.26458 -0.34925,0 -0.59266,-0.26458 -0.24342,-0.26459 -0.24342,-0.62442 z m -0.0106,-2.30717 q 0,-0.35983 0.23283,-0.62441 0.24342,-0.27517 0.60325,-0.27517 0.34925,0 0.58208,0.27517 0.24342,0.26458 0.24342,0.62441 0,0.34925 -0.24342,0.62442 -0.23283,0.26458 -0.58208,0.26458 -0.35983,0 -0.60325,-0.26458 -0.23283,-0.27517 -0.23283,-0.62442 z m 0,-2.16958 q 0,-0.35983 0.23283,-0.62442 0.24342,-0.26458 0.60325,-0.26458 0.34925,0 0.58208,0.26458 0.24342,0.26459 0.24342,0.62442 0,0.35983 -0.24342,0.62442 -0.23283,0.26458 -0.58208,0.26458 -0.35983,0 -0.60325,-0.26458 -0.23283,-0.26459 -0.23283,-0.62442 z"
         style="letter-spacing:0.27252084px;fill:#62a487;fill-opacity:1"
         id="path890" />
      <path
         d="m 139.5214,137.58502 h 3.67454 v -0.88053 h -2.29447 v -0.0169 q 0.57573,-0.4318 0.98213,-0.7874 0.4064,-0.36407 0.70274,-0.72814 0.29633,-0.37253 0.4572,-0.75353 0.16086,-0.38947 0.16086,-0.80433 0,-0.8636 -0.56726,-1.3716 -0.56727,-0.51647 -1.45627,-0.51647 -0.56727,0 -0.99907,0.18627 -0.4318,0.18626 -0.889,0.59266 l 0.56727,0.6604 q 0.36407,-0.31326 0.61807,-0.4318 0.26246,-0.127 0.5334,-0.127 0.47413,0 0.762,0.28787 0.29633,0.28787 0.29633,0.77047 0,0.29633 -0.0931,0.55033 -0.0931,0.24553 -0.381,0.5842 -0.2794,0.33867 -0.82127,0.82973 -0.54187,0.49107 -1.49013,1.27847 z"
         style="font-style:normal;font-variant:normal;font-weight:bold;font-stretch:normal;font-size:8.46666622px;font-family:Syntax;-inkscape-font-specification:'Syntax Bold';letter-spacing:-1.32291663px;word-spacing:-1.05833328px;fill:#62a487;fill-opacity:1"
         id="path892" />
    </g>
    <text
       xml:space="preserve"
       style="font-style:normal;font-weight:normal;font-size:10.58333302px;line-height:1.25;font-family:sans-serif;letter-spacing:0px;word-spacing:0px;fill:#000000;fill-opacity:1;stroke:none;stroke-width:0.26458332"
       x="115.39362"
       y="126.84954"
       id="text843"><tspan
         sodipodi:role="line"
         id="tspan841"
         x="115.39362"
         y="136.50504"
         style="stroke-width:0.26458332" /></text>
  </g>
</svg>
