<?xml version="1.0" encoding="UTF-8" standalone="no"?>
<svg
   xmlns:dc="http://purl.org/dc/elements/1.1/"
   xmlns:cc="http://creativecommons.org/ns#"
   xmlns:rdf="http://www.w3.org/1999/02/22-rdf-syntax-ns#"
   xmlns:svg="http://www.w3.org/2000/svg"
   xmlns="http://www.w3.org/2000/svg"
   xmlns:sodipodi="http://sodipodi.sourceforge.net/DTD/sodipodi-0.dtd"
   xmlns:inkscape="http://www.inkscape.org/namespaces/inkscape"
   width="20px"
   height="20px"
   viewBox="0 0 20 20"
   version="1.1"
   id="svg12"
   sodipodi:docname="waves_random.svg"
   inkscape:version="0.92.3 (2405546, 2018-03-11)">
  <metadata
     id="metadata16">
    <rdf:RDF>
      <cc:Work
         rdf:about="">
        <dc:format>image/svg+xml</dc:format>
        <dc:type
           rdf:resource="http://purl.org/dc/dcmitype/StillImage" />
        <dc:title>stats [#1190]</dc:title>
      </cc:Work>
    </rdf:RDF>
  </metadata>
  <sodipodi:namedview
     pagecolor="#959595"
     bordercolor="#666666"
     borderopacity="1"
     objecttolerance="10"
     gridtolerance="10"
     guidetolerance="10"
     inkscape:pageopacity="1"
     inkscape:pageshadow="2"
     inkscape:window-width="3840"
     inkscape:window-height="2050"
     id="namedview14"
     showgrid="false"
     inkscape:zoom="47.2"
     inkscape:cx="1.4377853"
     inkscape:cy="6.4595983"
     inkscape:window-x="-12"
     inkscape:window-y="-12"
     inkscape:window-maximized="1"
     inkscape:current-layer="svg12" />
  <!-- Generator: Sketch 3.8.1 (29687) - http://www.bohemiancoding.com/sketch -->
  <title
     id="title2">stats [#1190]</title>
  <desc
     id="desc4">Created with Sketch.</desc>
  <defs
     id="defs6" />
  <g
     transform="translate(-140,-2839)"
     id="Dribbble-Light-Preview"
     style="fill:#ffffff;fill-rule:evenodd;stroke:none;stroke-width:1;fill-opacity:0.99728996">
    <g
       transform="translate(56,160)"
       id="icons"
       style="fill:#ffffff;fill-opacity:0.99728996">
      <path
         sodipodi:nodetypes="ccccccccccccccccccccccccc"
         inkscape:connector-curvature="0"
         id="stats-[#1190]"
         d="m 102,2688 v 2 H 86 c -1.156,-1.971 0.206,0.35 0,0 v 0 0 0 -2 -7 h 16 z m 0,9 H 86 v -7 0 0 c 2.723,4.654 -1.294,-2.222 0,0 h 16 v 0 z m -18,2 h 20 v -20 H 84 Z"
         style="fill:#ffffff;fill-opacity:0.99728996" />
    </g>
  </g>
  <path
     style="fill:none;stroke:#ffffff;stroke-width:1;stroke-linecap:butt;stroke-linejoin:miter;stroke-opacity:1;stroke-miterlimit:4;stroke-dasharray:none"
     d="M 2.9237288,10.720339 3.559322,3.4110169 4.3432203,16.822034 5.3389831,3.4957627 6.1652542,16.567797 7.4152542,3.3898305 8.4745763,16.610169 9.5550847,3.3686441 10.275424,16.525424 11.694915,3.5381356 12.457627,16.016949 13.45339,3.4533898 14.194915,16.355932 15.805085,3.1144068 16.567797,10.95339 16.504237,10.847458"
     id="path2011"
     inkscape:connector-curvature="0" />
</svg>
